<svg><defs><font id="MaterialIcons-Regular" horiz-adv-x="512"><font-face font-family="Material Icons" font-weight="400" units-per-em="512" panose-1="2 0 5 3 0 0 0 0 0 0" ascent="512" descent="0" bbox="-0.000976562 -0.00195312 512.004 512.5" underline-thickness="50" underline-position="-100" unicode-range="U+0030-U+10FFFD"/><glyph glyph-name="uniE000" unicode="error" d="M277 235v128h-42V235h42zm0-86v43h-42v-43h42zm-21 320c58.667 0 108.834-20.833 150.501-62.5s62.5-91.834 62.5-150.501-20.833-108.834-62.5-150.501-91.834-62.5-150.501-62.5-108.834 20.833-150.501 62.5-62.5 91.834-62.5 150.501 20.833 108.834 62.5 150.501S197.333 469 256 469z"/><glyph glyph-name="uniE001" unicode="error_outline" d="M256 85c46.667 0 86.834 16.833 120.501 50.5s50.5 73.834 50.5 120.501-16.833 86.834-50.5 120.501-73.834 50.5-120.501 50.5-86.834-16.833-120.501-50.5-50.5-73.834-50.5-120.501 16.833-86.834 50.5-120.501S209.333 85 256 85zm0 384c58.667 0 108.834-20.833 150.501-62.5s62.5-91.834 62.5-150.501-20.833-108.834-62.5-150.501-91.834-62.5-150.501-62.5-108.834 20.833-150.501 62.5-62.5 91.834-62.5 150.501 20.833 108.834 62.5 150.501S197.333 469 256 469zm-21-106h42V235h-42v128zm0-171h42v-43h-42v43z"/><glyph glyph-name="uniE002" unicode="warning" d="M277 213v86h-42v-86h42zm0-85v43h-42v-43h42zM21 64l235 405L491 64H21z"/><glyph glyph-name="uniE003" unicode="add_alert" d="M341 234v43h-64v64h-42v-64h-64v-43h64v-64h42v64h64zm62-81 45-45V85H64v23l45 45v124c0 34 10.667 64.5 32 91.5s48.333 44.167 81 51.5v15c0 9.333 3.333 17.333 10 24s14.667 10 24 10 17.333-3.333 24-10 10-14.667 10-24v-15c32.667-7.333 59.667-24.5 81-51.5s32-57.5 32-91.5V153zM214 64h83.998c0-11.333-4.167-21.333-12.5-30s-18.166-13-29.499-13-21.166 4.333-29.499 13S214 52.667 214 64z"/><glyph glyph-name="uniE019" unicode="album" d="M256 277c6 0 11-2 15-6s6-9 6-15-2-11-6-15-9-6-15-6-11 2-15 6-6 9-6 15 2 11 6 15 9 6 15 6zm0-117c26.667 0 49.334 9.333 68.001 28s28 41.334 28 68.001-9.333 49.334-28 68.001-41.334 28-68.001 28-49.334-9.333-68.001-28-28-41.334-28-68.001 9.333-49.334 28-68.001 41.334-28 68.001-28zm0 309c58.667 0 108.834-20.833 150.501-62.5s62.5-91.834 62.5-150.501-20.833-108.834-62.5-150.501-91.834-62.5-150.501-62.5-108.834 20.833-150.501 62.5-62.5 91.834-62.5 150.501 20.833 108.834 62.5 150.501S197.333 469 256 469z"/><glyph glyph-name="uniE01B" unicode="av_timer" d="M128 256c0 6 2 11 6 15s9 6 15 6 11.167-2 15.5-6 6.5-9 6.5-15-2.167-11-6.5-15-9.5-6-15.5-6-11 2-15 6-6 9-6 15zm256 0c0-6-2-11-6-15s-9-6-15-6-11.167 2-15.5 6-6.5 9-6.5 15 2.167 11 6.5 15 9.5 6 15.5 6 11-2 15-6 6-9 6-15zM235 448l20.999-.002c53.333 0 98.666-18.667 135.999-56s56-82.666 56-135.999-18.667-98.666-56-135.999-82.666-56-135.999-56S157.333 82.667 120 120s-56 82.666-56 135.999c0 64 25.667 115 77 153v1l145-145-30-30-116 115c-22-27.333-33-58.666-33-93.999 0-41.333 14.5-76.5 43.5-105.5S214.667 107 256 107s76.5 14.5 105.5 43.5S405 214.667 405 256c0 37.333-12.333 70-37 98s-55 44.667-91 50v-41h-42v85zm-.001-299.002c0 6 2 11.167 6 15.5s9 6.5 15 6.5 11-2.167 15-6.5 6-9.5 6-15.5-2-11-6-15-9-6-15-6-11 2-15 6-6 9-6 15z"/><glyph glyph-name="uniE01C" unicode="closed_caption" d="M384 277v22c0 6-2 11-6 15s-9 6-15 6h-64c-6 0-11.167-2-15.5-6s-6.5-9-6.5-15v-86c0-6 2.167-11 6.5-15s9.5-6 15.5-6h64c6 0 11 2 15 6s6 9 6 15v22h-32v-11h-43v64h43v-11h32zm-149 0v22c0 6-2.167 11-6.5 15s-9.5 6-15.5 6h-64c-6 0-11-2-15-6s-6-9-6-15v-86c0-6 2-11 6-15s9-6 15-6h64c6 0 11.167 2 15.5 6s6.5 9 6.5 15v22h-32v-11h-43v64h43v-11h32zm170 150c11.333 0 21.333-4.333 30-13s13-18.667 13-30V128c0-11.333-4.333-21.333-13-30s-18.667-13-30-13H107c-12 0-22.167 4.333-30.5 13S64 116.667 64 128v256c0 11.333 4.167 21.333 12.5 30S95 427 107 427h298z"/><glyph glyph-name="uniE01D" unicode="equalizer" d="M341 320h86V85h-86v235zM85 85v171h86V85H85zm128 0v342h86V85h-86z"/><glyph glyph-name="uniE01E" unicode="explicit" d="M320 320v43H192V149h128v43h-85v43h85v42h-85v43h85zm85 128c11.333 0 21.333-4.333 30-13s13-18.667 13-30V107c0-11.333-4.333-21.333-13-30s-18.667-13-30-13H107c-11.333 0-21.333 4.333-30 13s-13 18.667-13 30v298c0 11.333 4.333 21.333 13 30s18.667 13 30 13h298z"/><glyph glyph-name="uniE01F" unicode="fast_forward" d="m277 384 182-128-182-128v256zM85 128v256l182-128z"/><glyph glyph-name="uniE020" unicode="fast_rewind" d="m245 256 182 128V128zm-10-128L53 256l182 128V128z"/><glyph glyph-name="uniE021" unicode="games" d="M352 320h117V192H352l-64 64zM192 160l64 64 64-64V43H192v117zm-32 160 64-64-64-64H43v128h117zm160 32-64-64-64 64v117h128V352z"/><glyph glyph-name="uniE023" unicode="hearing" d="M245 320c0 14.667 5.333 27.167 16 37.5s23.334 15.5 38.001 15.5 27.167-5.167 37.5-15.5 15.5-22.833 15.5-37.5-5.167-27.167-15.5-37.5-22.833-15.5-37.5-15.5-27.334 5.167-38.001 15.5-16 22.833-16 37.5zm-82 136c-37.333-37.333-56-82.668-56-136.001S125.667 221.333 163 184l-30-30c-46 46-69 101.333-69 166s23 120 69 166zM363 84.998c11.333 0 21.166 4.332 29.499 12.999s12.5 18.667 12.5 30h43c0-23.333-8.333-43.333-25-60s-36.667-25-60-25c-13.333 0-25 2.333-35 7-27.333 14-47 39.333-59 76-4.667 14.667-16.667 29.334-36 44.001-27.333 20-47.666 42.333-60.999 67-15.333 27.333-23 55-23 83 0 42 14.5 77.333 43.5 106s64.5 43 106.5 43 77.333-14.333 106-43 43-64 43-106h-43c0 30-10.167 55.333-30.5 76s-45.5 31-75.5 31-55.333-10.333-76-31-31-46-31-76c0-21.333 5.667-42.333 17-63 9.333-18 26-36 50-54 26.667-20 43.667-41.333 51-64 8.667-25.333 20.667-42 36-50 5.333-2.667 11-4 17-4z"/><glyph glyph-name="uniE024" unicode="high_quality" d="M309 224v64h43v-64h-43zm75-11v86c0 6-2 11-6 15s-9 6-15 6h-64c-6 0-11.167-2-15.5-6s-6.5-9-6.5-15v-86c0-6 2.167-11 6.5-15s9.5-6 15.5-6h16v-32h32v32h16c6 0 11 2 15 6s6 9 6 15zm-149-21v128h-32v-53h-43v53h-32V192h32v43h43v-43h32zm170 235c11.333 0 21.333-4.333 30-13s13-18.667 13-30V128c0-11.333-4.333-21.333-13-30s-18.667-13-30-13H107c-12 0-22.167 4.333-30.5 13S64 116.667 64 128v256c0 11.333 4.167 21.333 12.5 30S95 427 107 427h298z"/><glyph glyph-name="uniE028" unicode="loop" d="m256 128 .001 64 85-85-85-86v64c-46.667 0-86.834 16.833-120.501 50.5S85 209.334 85 256.001c0 33.333 9 63.666 27 90.999l31-31c-10-18-15-38-15-60 0-35.333 12.5-65.5 37.5-90.5S220.667 128 256 128zm.001 299c46.667 0 86.833-16.833 120.5-50.5s50.5-73.834 50.5-120.501c0-33.333-9-63.666-27-90.999l-31 31c10 18 15 38 15 60 0 35.333-12.5 65.5-37.5 90.5s-55.167 37.5-90.5 37.5v-64l-85 85 85 86v-64z"/><glyph glyph-name="uniE029" unicode="mic" d="M369 277h36c0-36-12.5-67.5-37.5-94.5S312.333 139.333 277 134V64h-42v70c-35.333 5.333-65.5 21.5-90.5 48.5S107 241 107 277h36c0-31.333 11.167-57.166 33.5-77.499s48.833-30.5 79.5-30.5 57.167 10.167 79.5 30.5S369 245.667 369 277zm-113-64c-17.333 0-32.333 6.333-45 19s-19 27.667-19 45v128c0 17.333 6.333 32.333 19 45s27.667 19 45 19 32.333-6.333 45-19 19-27.667 19-45V277c0-17.333-6.333-32.333-19-45s-27.667-19-45-19z"/><glyph glyph-name="uniE02A" unicode="mic_none" d="M369 277h36c0-36-12.5-67.5-37.5-94.5S312.333 139.333 277 134V64h-42v70c-35.333 5.333-65.5 21.5-90.5 48.5S107 241 107 277h36c0-31.333 11.167-57.166 33.5-77.499s48.833-30.5 79.5-30.5 57.167 10.167 79.5 30.5S369 245.667 369 277zM230 407V275c0-6.667 2.5-12.5 7.5-17.5s11.167-7.5 18.5-7.5c6.667 0 12.5 2.333 17.5 7s7.5 10.667 7.5 18l1 132c0 7.333-2.667 13.5-8 18.5s-11.333 7.5-18 7.5-12.667-2.5-18-7.5-8-11.167-8-18.5zm26-194c-17.333 0-32.333 6.333-45 19s-19 27.667-19 45v128c0 17.333 6.333 32.333 19 45s27.667 19 45 19 32.333-6.333 45-19 19-27.667 19-45V277c0-17.333-6.333-32.333-19-45s-27.667-19-45-19z"/><glyph glyph-name="uniE02B" unicode="mic_off" d="M91 448 448 90.998l-27-27-89 89c-14.667-9.333-33-15.666-55-18.999v-70h-42v70c-35.333 5.333-65.5 21.5-90.5 48.5s-37.5 58.5-37.5 94.5h36c0-31.333 11.167-57.166 33.5-77.499S225.333 169 256 169c16.667 0 33 3.667 49 11l-35 35c-5.333-1.333-10-2-14-2-17.333 0-32.333 6.333-45 19s-19 27.667-19 45v16L64 421zm229-174.002-128 127v4c0 17.333 6.333 32.333 19 45s27.667 19 45 19 32.333-6.333 45-19 19-27.667 19-45v-131zm85 3c0-24.667-6.333-47.999-19-69.999l-26 27c6 13.333 9 27.666 9 42.999h36z"/><glyph glyph-name="uniE02C" unicode="movie" d="M384 427h84.999V128c0-11.333-4.167-21.333-12.5-30S438.333 85 427 85H85c-11.333 0-21.166 4.333-29.499 13s-12.5 18.667-12.5 30v256c0 11.333 4.167 21.333 12.5 30S73.667 427 85 427h22l42-86h64l-42 86h42l43-86h64l-43 86h43l43-86h64z"/><glyph glyph-name="uniE02E" unicode="library_add" d="M405 277v43h-85v85h-43v-85h-85v-43h85v-85h43v85h85zm22 192c11.333 0 21.166-4.167 29.499-12.5s12.5-18.166 12.5-29.499v-256c0-11.333-4.167-21.333-12.5-30s-18.166-13-29.499-13H171c-11.333 0-21.333 4.333-30 13s-13 18.667-13 30v256c0 11.333 4.333 21.166 13 29.499s18.667 12.5 30 12.5h256zM85 384l-.001-298.999h299v-42h-299c-11.333 0-21.166 4.167-29.499 12.5S43 73.667 43 85v299h42z"/><glyph glyph-name="uniE02F" unicode="library_books" d="M405 363v42H192v-42h213zm-85-171v43H192v-43h128zm85 85v43H192v-43h213zm22 192c11.333 0 21.166-4.167 29.499-12.5s12.5-18.166 12.5-29.499v-256c0-11.333-4.167-21.333-12.5-30s-18.166-13-29.499-13H171c-11.333 0-21.333 4.333-30 13s-13 18.667-13 30v256c0 11.333 4.333 21.166 13 29.499s18.667 12.5 30 12.5h256zM85 384l-.001-298.999h299v-42h-299c-11.333 0-21.166 4.167-29.499 12.5S43 73.667 43 85v299h42z"/><glyph glyph-name="uniE030" unicode="library_music" d="m85 384-.001-298.999h299v-42h-299c-11.333 0-21.166 4.167-29.499 12.5S43 73.667 43 85v299h42zm298.999-20.999v42.001h-85v-117c-9.333 7.333-20 11-32 11-14.667 0-27.334-5.333-38.001-16s-16-23.334-16-38.001 5.333-27.167 16-37.5 23.334-15.5 38.001-15.5 27.167 5.167 37.5 15.5 15.5 22.833 15.5 37.5v118h64zm43 106.001c11.333 0 21.166-4.167 29.499-12.5s12.5-18.166 12.5-29.499v-256c0-11.333-4.167-21.333-12.5-30s-18.166-13-29.499-13h-256c-11.333 0-21.333 4.333-30 13s-13 18.667-13 30v256c0 11.333 4.333 21.166 13 29.499s18.667 12.5 30 12.5h256z"/><glyph glyph-name="uniE031" unicode="new_releases" d="M277 235v128h-42V235h42zm0-86v43h-42v-43h42zm214 107-52-59 7-79-77-17-40-68-73 31-73-31-40 67-77 18 7 79-52 59 52 60-7 78 77 17 40 68 73-31 73 31 40-68 77-17-7-79z"/><glyph glyph-name="uniE033" unicode="not_interested" d="M391 151c24 30 36.001 64.999 36.001 104.999 0 46.667-16.833 86.834-50.5 120.501S302.667 427 256 427c-40 0-75-12-105-36zM256.001 84.999C296.001 84.999 331 97 361 121L121 361c-24-30-36-65-36-105 0-46.667 16.833-86.834 50.5-120.501s73.834-50.5 120.501-50.5zM256 469c58.667 0 108.834-20.833 150.501-62.5s62.5-91.834 62.5-150.501-20.833-108.834-62.5-150.501-91.834-62.5-150.501-62.5-108.834 20.833-150.501 62.5-62.5 91.834-62.5 150.501 20.833 108.834 62.5 150.501S197.333 469 256 469z"/><glyph glyph-name="uniE034" unicode="pause" d="M299 405h85V107h-85v298zM128 107v298h85V107h-85z"/><glyph glyph-name="uniE035" unicode="pause_circle_filled" d="M320 171v170h-43V171h43zm-85 0v170h-43V171h43zm21 298c58.667 0 108.834-20.833 150.501-62.5s62.5-91.834 62.5-150.501-20.833-108.834-62.5-150.501-91.834-62.5-150.501-62.5-108.834 20.833-150.501 62.5-62.5 91.834-62.5 150.501 20.833 108.834 62.5 150.501S197.333 469 256 469z"/><glyph glyph-name="uniE036" unicode="pause_circle_outline" d="M277 171v170h43V171h-43zm-21-86c46.667 0 86.834 16.833 120.501 50.5s50.5 73.834 50.5 120.501-16.833 86.834-50.5 120.501-73.834 50.5-120.501 50.5-86.834-16.833-120.501-50.5-50.5-73.834-50.5-120.501 16.833-86.834 50.5-120.501S209.333 85 256 85zm0 384c58.667 0 108.834-20.833 150.501-62.5s62.5-91.834 62.5-150.501-20.833-108.834-62.5-150.501-91.834-62.5-150.501-62.5-108.834 20.833-150.501 62.5-62.5 91.834-62.5 150.501 20.833 108.834 62.5 150.501S197.333 469 256 469zm-64-298v170h43V171h-43z"/><glyph glyph-name="uniE037" unicode="play_arrow" d="m171 405 234-149-234-149v298z"/><glyph glyph-name="uniE038" unicode="play_circle_filled" d="m213 160 128 96-128 96V160zm43 309c58.667 0 108.834-20.833 150.501-62.5s62.5-91.834 62.5-150.501-20.833-108.834-62.5-150.501-91.834-62.5-150.501-62.5-108.834 20.833-150.501 62.5-62.5 91.834-62.5 150.501 20.833 108.834 62.5 150.501S197.333 469 256 469z"/><glyph glyph-name="uniE039" unicode="play_circle_outline" d="M256 85c46.667 0 86.834 16.833 120.501 50.5s50.5 73.834 50.5 120.501-16.833 86.834-50.5 120.501-73.834 50.5-120.501 50.5-86.834-16.833-120.501-50.5-50.5-73.834-50.5-120.501 16.833-86.834 50.5-120.501S209.333 85 256 85zm0 384c58.667 0 108.834-20.833 150.501-62.5s62.5-91.834 62.5-150.501-20.833-108.834-62.5-150.501-91.834-62.5-150.501-62.5-108.834 20.833-150.501 62.5-62.5 91.834-62.5 150.501 20.833 108.834 62.5 150.501S197.333 469 256 469zm-43-309v192l128-96z"/><glyph glyph-name="uniE03B" unicode="playlist_add" d="M43 171v42h170v-42H43zm341 42h85v-42h-85V85h-43v86h-85v42h85v86h43v-86zm-85 171v-43H43v43h256zm0-85v-43H43v43h256z"/><glyph glyph-name="uniE03C" unicode="queue" d="M405 277v43h-85v85h-43v-85h-85v-43h85v-85h43v85h85zm22 192c11.333 0 21.166-4.167 29.499-12.5s12.5-18.166 12.5-29.499v-256c0-11.333-4.167-21.333-12.5-30s-18.166-13-29.499-13H171c-11.333 0-21.333 4.333-30 13s-13 18.667-13 30v256c0 11.333 4.333 21.166 13 29.499s18.667 12.5 30 12.5h256zM85 384l-.001-298.999h299v-42h-299c-11.333 0-21.166 4.167-29.499 12.5S43 73.667 43 85v299h42z"/><glyph glyph-name="uniE03D" unicode="queue_music" d="M363 384h106.001v-43h-64V149c0-17.333-6.333-32.333-19-45s-27.667-19-45-19-32.333 6.333-45 19-19 27.667-19 45 6.333 32.333 19 45 27.667 19 45 19c5.333 0 12.666-1.333 21.999-4v175zM64.001 171v42h171v-42h-171zm256 128v-43h-256v43h256zm0 85v-43h-256v43h256z"/><glyph glyph-name="uniE03E" unicode="radio" d="M427 256v85H85v-85h256v43h43v-43h43zM149 85c17.333 0 32.333 6.333 45 19s19 27.667 19 45-6.333 32.333-19 45-27.667 19-45 19-32.333-6.333-45-19-19-27.667-19-45 6.333-32.333 19-45 27.667-19 45-19zM69 381l270 110 14-36-176-71h250c12 0 22-4.167 30-12.5s12-18.5 12-30.5V85c0-11.333-4-21.166-12-29.499s-18-12.5-30-12.5H85c-12 0-22 4.167-30 12.5S43 73.667 43 85v256c0 20 8.667 33.333 26 40z"/><glyph glyph-name="uniE03F" unicode="recent_actors" d="M267 149v16c0 14.667-11 26.334-33 35.001s-43 13-63 13-41-4.333-63-13S75 179.667 75 165v-16h192zm-96 198c-12.667 0-23.834-4.833-33.501-14.5s-14.5-20.834-14.5-33.501 4.833-23.834 14.5-33.501 20.834-14.5 33.501-14.5 23.834 4.833 33.501 14.5 14.5 20.834 14.5 33.501-4.833 23.834-14.5 33.501S183.667 347 171 347zm128 58c6 0 11-2 15-6s6-9 6-15V128c0-6-2-11-6-15s-9-6-15-6H43c-6 0-11.167 2-15.5 6s-6.5 9-6.5 15v256c0 6 2.167 11 6.5 15s9.5 6 15.5 6h256zm64-298v298h42V107h-42zm85 298h43V107h-43v298z"/><glyph glyph-name="uniE040" unicode="repeat" d="M363 149v86h42V107H149V43l-85 85 85 85v-64h214zM149 363v-86h-42v128h256v64l85-85-85-85v64H149z"/><glyph glyph-name="uniE041" unicode="repeat_one" d="M277 192h-32v85h-32v22l43 21h21V192zm86-43v86h42V107H149V43l-85 85 85 85v-64h214zM149 363v-86h-42v128h256v64l85-85-85-85v64H149z"/><glyph glyph-name="uniE042" unicode="replay" d="M256 405c47.333 0 87.669-16.667 121.002-50s50-73.333 50-120c0-47.333-16.833-87.666-50.5-120.999s-73.834-50-120.501-50-86.834 16.667-120.501 50S85 187.667 85 235h43c0-35.333 12.5-65.5 37.5-90.5S220.667 107 256 107s65.5 12.5 90.5 37.5S384 199.667 384 235s-12.5 65.5-37.5 90.5S291.333 363 256 363v-86L149 384l107 107v-86z"/><glyph glyph-name="uniE043" unicode="shuffle" d="m316 226 67-67 44 44V85H309l44 44-67 67zm-7 201h118V309l-44 44L115 85l-30 30 268 268zm-83-111-30-30L85 397l30 30z"/><glyph glyph-name="uniE044" unicode="skip_next" d="M341 384h43V128h-43v256zM128 128v256l181-128z"/><glyph glyph-name="uniE045" unicode="skip_previous" d="m203 256 181 128V128zm-75 128h43V128h-43v256z"/><glyph glyph-name="uniE046" unicode="snooze" d="M192 277v43h128v-38l-77-90h77v-43H192v39l77 89h-77zm64-192c41.333 0 76.5 14.667 105.5 44S405 193.666 405 234.999s-14.5 76.5-43.5 105.5-64.167 43.5-105.5 43.5-76.5-14.5-105.5-43.5-43.5-64.167-43.5-105.5S121.5 158.333 150.5 129 214.667 85 256 85zm0 342c53.333 0 98.666-18.833 135.999-56.5s56-82.834 56-135.501-18.667-97.834-56-135.501-82.666-56.5-135.999-56.5-98.666 18.833-135.999 56.5-56 82.834-56 135.501 18.667 97.834 56 135.501S202.667 427 256 427zm213-37-27-33-98 83 27 32zm-301 50-98-82-27 32 98 82z"/><glyph glyph-name="uniE047" unicode="stop" d="M128 384h256V128H128v256z"/><glyph glyph-name="uniE048" unicode="subtitles" d="M427 213v43H213v-43h214zm0-85v43h-86v-43h86zm-128 0v43H85v-43h214zM85 256v-43h86v43H85zm342 171c11.333 0 21.166-4.333 29.499-13s12.5-18.667 12.5-30V128c0-11.333-4.167-21.333-12.5-30S438.333 85 427 85H85c-11.333 0-21.166 4.333-29.499 13s-12.5 18.667-12.5 30v256c0 11.333 4.167 21.333 12.5 30S73.667 427 85 427h342z"/><glyph glyph-name="uniE049" unicode="surround_sound" d="M256 299c11.333 0 21.333-4.333 30-13s13-18.667 13-30-4.333-21.333-13-30-18.667-13-30-13-21.333 4.333-30 13-13 18.667-13 30 4.333 21.333 13 30 18.667 13 30 13zm121-164c33.333 33.333 50 73.668 50 121.001S410.333 343.667 377 377l-31-31c25.333-25.333 38-55.333 38-90 0-36-12.333-66.333-37-91zm-121 36.002c23.333 0 43.333 8.333 60 25s25 36.667 25 60-8.333 43.333-25 60-36.667 25-60 25-43.333-8.333-60-25-25-36.667-25-60 8.333-43.333 25-60 36.667-25 60-25zm-90-5c-25.333 25.333-38 55.331-38 89.998 0 36 12.333 66.333 37 91l-30 30c-33.333-33.333-50-73.666-50-120.999s16.667-87.666 50-120.999zM427 427c11.333 0 21.166-4.333 29.499-13s12.5-18.667 12.5-30V128c0-11.333-4.167-21.333-12.5-30S438.333 85 427 85H85c-11.333 0-21.166 4.333-29.499 13s-12.5 18.667-12.5 30v256c0 11.333 4.167 21.333 12.5 30S73.667 427 85 427h342z"/><glyph glyph-name="uniE04A" unicode="video_collection" d="m256 203 128 96-128 96V203zm171 266c11.333 0 21.166-4.167 29.499-12.5s12.5-18.166 12.5-29.499v-256c0-11.333-4.167-21.333-12.5-30s-18.166-13-29.499-13H171c-11.333 0-21.333 4.333-30 13s-13 18.667-13 30v256c0 11.333 4.333 21.166 13 29.499s18.667 12.5 30 12.5h256zM85 384l-.001-298.999h299v-42h-299c-11.333 0-21.166 4.167-29.499 12.5S43 73.667 43 85v299h42z"/><glyph glyph-name="uniE04B" unicode="videocam" d="m363 288 85 85V139l-85 85v-75c0-6-2.167-11-6.5-15s-9.5-6-15.5-6H85c-6 0-11 2-15 6s-6 9-6 15v214c0 6 2 11 6 15s9 6 15 6h256c6 0 11.167-2 15.5-6s6.5-9 6.5-15v-75z"/><glyph glyph-name="uniE04C" unicode="videocam_off" d="M70 469 448 91l-27-27-68 68c-4-2.667-8-4-12-4H85c-6 0-11 2-15 6s-6 9-6 15v214c0 6 2 11 6 15s9 6 15 6h16l-58 58zm378-96V145L209 384h132c6 0 11.167-2 15.5-6s6.5-9 6.5-15v-75z"/><glyph glyph-name="uniE04D" unicode="volume_down" d="M107 320h85l107 107V85L192 192h-85v128zm288-64c0-39.333-18-68-54-86v172c36-18 54-46.667 54-86z"/><glyph glyph-name="uniE04E" unicode="volume_mute" d="M149 320h86l106 107V85L235 192h-86v128z"/><glyph glyph-name="uniE04F" unicode="volume_off" d="M256 427v-90l-45 45zM91 448 448 91l-27-27-44 44c-24.667-19.333-50.667-32.333-78-39v44c16.667 4.667 32.667 13 48 25l-91 91V85L149 192H64v128h101L64 421zm314-192c0 34-9.833 64-29.5 90s-45.167 43.667-76.5 53v44c43.333-9.333 79-31.5 107-66.5s42-75.167 42-120.5c0-32-7.333-61.667-22-89l-32 33c7.333 18 11 36.667 11 56zm-53 0c0-6-.333-10.333-1-13l-52 52v47c35.333-17.333 53-46 53-86z"/><glyph glyph-name="uniE050" unicode="volume_up" d="M299 443c43.333-9.333 79-31.5 107-66.5s42-75.167 42-120.5-14-85.5-42-120.5S342.333 78.333 299 69v44c31.333 9.333 56.833 27 76.5 53s29.5 56 29.5 90-9.833 64-29.5 90-45.167 43.667-76.5 53v44zm53-187c0-40-17.667-68.667-53-86v172c35.333-17.333 53-46 53-86zM64 320h85l107 107V85L149 192H64v128z"/><glyph glyph-name="uniE051" unicode="web" d="M427 128v192h-86V128h86zM320 235v85H85v-85h235zm0-107v85H85v-85h235zm107 299c11.333 0 21.166-4.333 29.499-13s12.5-18.667 12.5-30V128c0-11.333-4.167-21.333-12.5-30S438.333 85 427 85H85c-11.333 0-21.166 4.333-29.499 13s-12.5 18.667-12.5 30v256c0 11.333 4.167 21.333 12.5 30S73.667 427 85 427h342z"/><glyph glyph-name="uniE052" unicode="hd" d="M309 224v64h43v-64h-43zm-32 96V192h86c6 0 11 2 15 6s6 9 6 15v86c0 6-2 11-6 15s-9 6-15 6h-86zm-42-128v128h-32v-53h-43v53h-32V192h32v43h43v-43h32zm170 256c11.333 0 21.333-4.333 30-13s13-18.667 13-30V107c0-11.333-4.333-21.333-13-30s-18.667-13-30-13H107c-12 0-22.167 4.333-30.5 13S64 95.667 64 107v298c0 11.333 4.167 21.333 12.5 30S95 448 107 448h298z"/><glyph glyph-name="uniE053" unicode="sort_by_alpha" d="M336 168h130v-34H284v27l126 183H285v34h177v-27zm-230 53h83l-42 111zm24 157h35l96-244h-39l-20 52H93l-20-52H34zm89-279h99l-50-50zm100 314H218l50 50z"/><glyph glyph-name="uniE055" unicode="airplay" d="M448 448c11.333 0 21.333-4.333 30-13s13-18.667 13-30V149c0-11.333-4.333-21.166-13-29.499s-18.667-12.5-30-12.5h-85v42h85v256H64v-256h85v-42H64c-11.333 0-21.333 4.167-30 12.5S21 137.667 21 149v256c0 11.333 4.333 21.333 13 30s18.667 13 30 13h384zM128 43l128 128L384 43H128z"/><glyph glyph-name="uniE056" unicode="forward_10" d="M282 188c0-4.667 3.334-7 10.001-7 3.333 0 5.666.667 6.999 2l4 5c1.333 2.667 2 4.667 2 6v43c-1.333 2.667-2 4.667-2 6s-1.5 2.833-4.5 4.5-5.167 2.5-6.5 2.5c-2 0-4-1-6-3l-4-4c-2-2.667-3-4.667-3-6v-43c2-2.667 3-4.667 3-6zm40.001 21c0-8.667-.664-14.334-1.997-17.001l-6-13c-4.667-4-8.334-6-11.001-6-1.333 0-3.5-.333-6.5-1s-5.167-1-6.5-1c-6 0-10.333.667-13 2-1.333.667-3 1.667-5 3s-3.667 2.333-5 3c-6 3.333-9 13.333-9 30v15c0 8.667.667 14.334 2 17.001l7 13c4 4 7.333 6 10 6 1.333 0 3.5.333 6.5 1s5.167 1 6.5 1c6 0 10.333-.667 13-2 1.333-.667 3.166-1.667 5.499-3s4.166-2.333 5.499-3 3.333-5 6-13c1.333-4 2-9.667 2-17v-15zm-88.997-38h-20v70l-21-6v15l38 12h3v-91zm-148 64c0 46.667 16.67 86.667 50.003 120s73.666 50 120.999 50v86l107-107-107-107v86c-34.667 0-64.667-12.5-90-37.5s-38-55.167-38-90.5 12.667-65.5 38-90.5 55.333-37.5 90-37.5 64.667 12.5 90 37.5 38 55.167 38 90.5h43c0-47.333-16.833-87.666-50.5-120.999s-73.834-50-120.501-50-86.834 16.667-120.501 50-50.5 73.666-50.5 120.999z"/><glyph glyph-name="uniE057" unicode="forward_30" d="M85 235c0 46.667 16.67 86.667 50.003 120s73.666 50 120.999 50v86l107-107-107-107v86c-34.667 0-64.667-12.5-90-37.5s-38-55.167-38-90.5 12.667-65.5 38-90.5 55.333-37.5 90-37.5 64.667 12.5 90 37.5 38 55.167 38 90.5h43c0-47.333-16.833-87.666-50.5-120.999s-73.834-50-120.501-50-86.834 16.667-120.501 50S85 187.667 85 235zm199.003-47c0-4.667 3.334-7 10.001-7 3.333 0 5.666.667 6.999 2l4 5c1.333 2.667 2 4.667 2 6v43c-1.333 2.667-2 4.667-2 6s-1.5 2.833-4.5 4.5-5.167 2.5-6.5 2.5c-2 0-4-1-6-3l-4-4c-1.333-2.667-2-4.667-2-6v-43c1.333-2.667 2-4.667 2-6zm42.001 21c0-8.667-.664-14.333-1.997-17l-6-13c-4.667-4-8.334-6-11.001-6-1.333 0-3.5-.333-6.5-1s-5.167-1-6.5-1c-4.667 0-12.334 2.667-23.001 8-1.333.667-3.333 5-6 13-2 6-3 11.667-3 17v15c0 7.333 1 13 3 17l6 13c4.667 4 8.334 6 11 6 1.334 0 3.334.333 6 1s4.668 1 6 1c6 0 10.334-.667 13-2 1.334-.667 3.167-1.667 5.5-3s4.166-2.333 5.499-3 3.333-5 6-13c1.333-4 2-9.667 2-17v-15zm-112.997 15.001c10 0 14.997 4.331 14.997 12.998v4c-1.333 1.333-2 2.666-2 3.999s-1.333 2-4 2h-11c-1.333-1.333-2.666-2-3.999-2s-2-1.333-2-4v-4h-22c0 5.333 1.833 10.5 5.5 15.5s7.834 7.5 12.501 7.5c.667 0 2.334.333 5.001 1s4.334 1 5.001 1c8 0 16-2 24-6 5.333-2.667 8-9 8-19v-7c-1.333-2.667-2-4.667-2-6 0-2.667-1.333-4-4-4-1.333 0-3.666-1.667-6.999-5 6-3.333 9.667-6 11-8 2.667-5.333 4-9.666 4-12.999 0-6-.667-9.667-2-11-.667-.667-1.667-2-3-4s-2.333-3.333-3-4c-2.667-2.667-6.334-4-11.001-4-1.333 0-3.5-.333-6.5-1s-5.167-1-6.5-1c-5.333 0-8.666.667-9.999 2-.667.667-2.334 1.334-5.001 2.001s-4.667 1.334-6 2.001c-6 3.333-9 10.333-9 21h18v-4c1.333-1.333 2-2.666 2-3.999s1.333-2 4-2h11c1.333 1.333 2.666 2 3.999 2s2 1.333 2 4v11c-1.333 1.333-2 2.666-2 3.999s-1.333 2-4 2h-13v15h8z"/><glyph glyph-name="uniE058" unicode="forward_5" d="M250 222c-4.667-2-7.002-3.333-7.002-4l-2-3h-13l5 47h51v-15h-37l-2-19c1.333 0 2 .667 2 2 0 .667.5 1.167 1.5 1.5s1.5.833 1.5 1.5h8c5.333 0 9-1 11-3 .667-.667 2-1.667 4-3s3.333-2.333 4-3c6-6 9-13.667 9-23 0-6-.667-9.667-2-11-.667-.667-1.667-2.334-3-5.001s-2.666-4.667-3.999-6c-5.333-5.333-13-8-23-8-6 0-9.667.667-11 2-.667.667-2.167 1.334-4.5 2.001s-4.166 1.334-5.499 2.001c-6 3.333-9 9.666-9 18.999h17c0-6.667 4.333-10 13-10 2.667 0 4.667.667 6 2l5 4c1.333 2.667 2 4.667 2 6v13l-2 4-5 5c-2.667 1.333-4.667 2-6 2h-4zM84.998 235c0 46.667 16.67 86.667 50.003 120S208.667 405 256 405v86l107-107-107-107v86c-34.667 0-64.667-12.5-90-37.5s-38-55.167-38-90.5 12.667-65.5 38-90.5 55.333-37.5 90-37.5 64.667 12.5 90 37.5 38 55.167 38 90.5h43c0-47.333-16.833-87.666-50.5-120.999s-73.834-50-120.501-50-86.834 16.667-120.501 50-50.5 73.666-50.5 120.999z"/><glyph glyph-name="uniE059" unicode="replay_10" d="M282 188c0-4.667 3.334-7 10.001-7 3.333 0 5.666.667 6.999 2l4 5c1.333 2.667 2 4.667 2 6v43c-1.333 2.667-2 4.667-2 6s-1.5 2.833-4.5 4.5-5.167 2.5-6.5 2.5c-2 0-4-1-6-3l-4-4c-2-2.667-3-4.667-3-6v-43c2-2.667 3-4.667 3-6zm42.001 21c0-8.667-.664-14.334-1.997-17.001l-6-13c-4.667-4-8.334-6-11.001-6-1.333 0-3.5-.333-6.5-1s-5.167-1-6.5-1c-6 0-10.333.667-13 2-1.333.667-3 1.667-5 3s-3.667 2.333-5 3c-6 3.333-9 13.333-9 30v15c0 8.667.667 14.334 2 17.001l7 13c4 4 7.333 6 10 6 1.333 0 3.5.333 6.5 1s5.167 1 6.5 1c6 0 10.333-.667 13-2 1.333-.667 3.166-1.667 5.499-3s4.166-2.333 5.499-3 3.333-5 6-13c1.333-4 2-9.667 2-17v-15zm-90.997-38h-20v70l-21-6v15l38 12h3v-91zm23 234c47.333 0 87.669-16.667 121.002-50s50-73.333 50-120c0-47.333-16.833-87.666-50.5-120.999s-73.834-50-120.501-50-86.834 16.667-120.501 50-50.5 73.666-50.5 120.999h43c0-35.333 12.667-65.5 38-90.5s55.333-37.5 90-37.5 64.667 12.5 90 37.5 38 55.167 38 90.5-12.667 65.5-38 90.5-55.333 37.5-90 37.5v-86l-107 107 107 107v-86z"/><glyph glyph-name="uniE05A" unicode="replay_30" d="M286 188c0-4.667 3.667-7 11-7 2.667 0 4.667.667 6 2l4 5c1.333 2.667 2 4.667 2 6v43c0 .667-.333 1.667-1 3s-1 2.333-1 3c0 1.333-1.333 2.833-4 4.5s-4.667 2.5-6 2.5c-2.667 0-5-1-7-3l-4-4c-1.333-2.667-2-4.667-2-6v-43c1.333-2.667 2-4.667 2-6zm40 21c0-8.667-.664-14.333-1.997-17l-6-13c-4.667-4-8.334-6-11.001-6-1.333 0-3.5-.333-6.5-1s-5.167-1-6.5-1c-4.667 0-12.334 2.667-23.001 8-1.333.667-3.333 5-6 13-2 6-3 11.667-3 17v15c0 7.333 1 13 3 17l6 13c4.667 4 8.334 6 11 6 1.334 0 3.334.333 6 1s4.668 1 6 1c6 0 10.334-.667 13-2 1.334-.667 3.167-1.667 5.5-3s4.166-2.333 5.499-3 3.333-5 6-13c1.333-4 2-9.667 2-17v-15zm-112.997 15.001c10 0 14.997 4.331 14.997 12.998v4c-1.333 1.333-2 2.666-2 3.999s-1.333 2-4 2h-11c-1.333-1.333-2.666-2-3.999-2s-2-1.333-2-4v-4h-22c0 5.333 1.833 10.5 5.5 15.5s7.834 7.5 12.501 7.5c.667 0 2.334.333 5.001 1s4.334 1 5.001 1c8 0 16-2 24-6 5.333-2.667 8-9 8-19v-7c-1.333-2.667-2-4.667-2-6 0-2.667-1.333-4-4-4-1.333 0-3.666-1.667-6.999-5 6-3.333 9.667-6 11-8 2.667-5.333 4-9.666 4-12.999 0-6-.667-9.667-2-11-.667-.667-1.667-2-3-4s-2.333-3.333-3-4c-2.667-2.667-6.334-4-11.001-4-1.333 0-3.5-.333-6.5-1s-5.167-1-6.5-1c-5.333 0-8.666.667-9.999 2-.667.667-2.334 1.334-5.001 2.001s-4.667 1.334-6 2.001c-6 3.333-9 10.333-9 21h18v-4c1.333-1.333 2-2.666 2-3.999s1.333-2 4-2h11c1.333 1.333 2.666 2 3.999 2s2 1.333 2 4v11c-1.333 1.333-2 2.666-2 3.999s-1.333 2-4 2h-13v15h8zM256 404.999c47.333 0 87.669-16.667 121.002-50s50-73.333 50-120c0-47.333-16.833-87.666-50.5-120.999s-73.834-50-120.501-50-86.834 16.667-120.501 50S85 187.666 85 234.999h43c0-35.333 12.667-65.5 38-90.5s55.333-37.5 90-37.5 64.667 12.5 90 37.5 38 55.167 38 90.5-12.667 65.5-38 90.5-55.333 37.5-90 37.5v-86l-107 107 107 107v-86z"/><glyph glyph-name="uniE05B" unicode="replay_5" d="M252 222c-4.667-2-7.002-3.333-7.002-4l-2-3h-15l5 47h51v-15h-37l-2-19c1.333 0 2 .667 2 2 0 .667.5 1.167 1.5 1.5s1.5.833 1.5 1.5h8c5.333 0 9-1 11-3 .667-.667 2-1.667 4-3s3.333-2.333 4-3c6-6 9-13.667 9-23 0-6-.667-9.667-2-11-.667-.667-1.667-2.334-3-5.001s-2.666-4.667-3.999-6-2.833-2.5-4.5-3.5-2.834-1.833-3.5-2.5c-1.334-1.333-5.667-2-13-2-6 0-9.667.667-11 2-.667.667-2.167 1.334-4.5 2.001s-4.166 1.334-5.499 2.001c-6 3.333-9 9.666-9 18.999h17c0-6.667 4.333-10 13-10 2.667 0 4.667.667 6 2l5 4c1.333 2.667 2 4.667 2 6v13l-2 4-5 5c-2.667 1.333-4.667 2-6 2h-4zm3.998 183c47.333 0 87.669-16.667 121.002-50s50-73.333 50-120c0-47.333-16.833-87.666-50.5-120.999s-73.834-50-120.501-50-86.834 16.667-120.501 50-50.5 73.666-50.5 120.999h43c0-35.333 12.667-65.5 38-90.5s55.333-37.5 90-37.5 64.667 12.5 90 37.5 38 55.167 38 90.5-12.667 65.5-38 90.5-55.333 37.5-90 37.5v-86l-107 107 107 107v-86z"/><glyph glyph-name="uniE05C" unicode="add_to_queue" d="M341 299v-43h-64v-64h-42v64h-64v43h64v64h42v-64h64zm107-150v256H64V149h384zm0 299c11.333 0 21.332-4.167 29.999-12.5s13-18.5 13-30.5l-1-256c0-11.333-4.167-21.166-12.5-29.499s-18.166-12.5-29.499-12.5H341v-43H171v43H64c-12 0-22.167 4.167-30.5 12.5S21 137.667 21 149v256c0 12 4.167 22.167 12.5 30.5S52 448 64 448h384z"/><glyph glyph-name="uniE05D" unicode="fiber_dvr" d="M448 267v21c0 9.333-3 17-9 23s-13.667 9-23 9h-75V192h32v43h25l18-43h32l-19 45c12.667 6 19 16 19 30zm-179-75 38 128h-32l-22-73-21 73h-32l37-128h32zm-98 32v64c0 9.333-3.167 17-9.5 23s-13.833 9-22.5 9H64V192h75c8.667 0 16.167 3 22.5 9s9.5 13.667 9.5 23zm277 224c12 0 22.167-4.167 30.5-12.5S491 417 491 405V107c0-11.333-4.167-21.333-12.5-30S460 64 448 64H64c-12 0-22.167 4.333-30.5 13S21 95.667 21 107v298c0 12 4.167 22.167 12.5 30.5S52 448 64 448h384zM96 288h43v-64H96v64zm277 0h43v-21h-43v21z"/><glyph glyph-name="uniE05E" unicode="fiber_new" d="M437 213v107h-26v-96h-24v75h-27v-75h-24v96h-27V213c0-6 2.167-11 6.5-15s9.5-6 15.5-6h85c6 0 11 2 15 6s6 9 6 15zm-149 80v27h-85V192h85v27h-53v23h53v27h-53v24h53zM181 192v128h-26v-75l-54 75H75V192h26v75l55-75h25zm246 235c12 0 22-4.167 30-12.5s12-18.5 12-30.5V128c0-12-4-22.167-12-30.5S439 85 427 85H85c-12 0-22 4.167-30 12.5S43 116 43 128v256c0 12 4 22.167 12 30.5S73 427 85 427h342z"/><glyph glyph-name="uniE05F" unicode="playlist_play" d="m363 235 106-64-106-64v128zM43 192v43h277v-43H43zm362 213v-42H43v42h362zm0-85v-43H43v43h362z"/><glyph glyph-name="uniE060" unicode="art_track" d="m224 192-48 64-37-48-27 32-37-48h149zm32 128V192c0-11.333-4.333-21.333-13-30s-18.667-13-30-13H85c-11.333 0-21.166 4.333-29.499 13s-12.5 18.667-12.5 30v128c0 11.333 4.167 21.333 12.5 30S73.667 363 85 363h128c11.333 0 21.333-4.333 30-13s13-18.667 13-30zm43-171v43h170v-43H299zm170 214v-43H299v43h170zm0-128H299v42h170v-42z"/><glyph glyph-name="uniE061" unicode="fiber_manual_record" d="M85 256c0 46.667 16.833 86.834 50.5 120.501s73.834 50.5 120.501 50.5 86.834-16.833 120.501-50.5 50.5-73.834 50.5-120.501-16.833-86.834-50.5-120.501-73.834-50.5-120.501-50.5-86.834 16.833-120.501 50.5S85 209.333 85 256z"/><glyph glyph-name="uniE062" unicode="fiber_smart_record" d="M363 421c37.333-9.333 68-29.333 92-60s36-65.667 36-105-12-74.333-36-105-54.667-50.667-92-60v44c25.333 8.667 45.833 24 61.5 46s23.5 47 23.5 75-7.833 53-23.5 75-36.167 37.333-61.5 46v44zM21 256c0 46.667 16.833 86.834 50.5 120.501s73.834 50.5 120.501 50.5 86.834-16.833 120.501-50.5 50.5-73.834 50.5-120.501-16.833-86.834-50.5-120.501-73.834-50.5-120.501-50.5-86.834 16.833-120.501 50.5S21 209.333 21 256z"/><glyph glyph-name="uniE063" unicode="music_video" d="M171 192c0 17.333 6.333 32.332 19 44.999s27.667 19 45 19c4.667 0 11.667-1.333 21-4v132h107v-43h-64v-150c0-17.333-6.333-32.166-19-44.499S252.333 128 235 128s-32.333 6.333-45 19-19 27.667-19 45zm277-85.001v298H64v-298h384zm0 341c11.333 0 21.333-4.333 30-13s13-18.667 13-30v-298c0-11.333-4.333-21.333-13-30s-18.667-13-30-13H64c-11.333 0-21.333 4.333-30 13s-13 18.667-13 30v298c0 11.333 4.333 21.333 13 30s18.667 13 30 13h384z"/><glyph glyph-name="uniE064" unicode="subscriptions" d="m341 171-128 69V101zm128 85V85c0-11.333-4.167-21.166-12.5-29.499s-18.166-12.5-29.499-12.5h-342c-11.333 0-21.166 4.167-29.499 12.5S43.002 73.667 43.002 85v171c0 11.333 4.167 21.333 12.5 30s18.166 13 29.499 13h342c11.333 0 21.166-4.333 29.499-13s12.5-18.667 12.5-30zm-85 213v-42H128v42h256zm43-128H85v43h342v-43z"/><glyph glyph-name="uniE065" unicode="playlist_add_check" d="m459 267 32-32L342 85l-97 96 32 32 65-64zM43 171v42h170v-42H43zm256 213v-43H43v43h256zm0-85v-43H43v43h256z"/><glyph glyph-name="uniE066" unicode="queue_play_next" d="m512 128-96-96-32 32 64 64-64 64 32 32zM277 299h64v-43h-64v-64h-42v64h-64v43h64v64h42v-64zm171 149c11.333 0 21.333-4.166 30-12.499s13-18.5 13-30.5v-170h-43v170H64v-256h320v-42h-43v-43H171v43H64c-12 0-22.167 4.167-30.5 12.5S21 137.667 21 149v256c0 12 4.167 22.167 12.5 30.5S52 448 64 448h384z"/><glyph glyph-name="uniE067" unicode="remove_from_queue" d="M341 299v-43H171v43h170zm107-150v256H64V149h384zm0 299c11.333 0 21.332-4.167 29.999-12.5s13-18.5 13-30.5l-1-256c0-11.333-4.167-21.166-12.5-29.499s-18.166-12.5-29.499-12.5H341v-43H171v43H64c-12 0-22.167 4.167-30.5 12.5S21 137.667 21 149v256c0 12 4.167 22.167 12.5 30.5S52 448 64 448h384z"/><glyph glyph-name="uniE068" unicode="slow_motion_video" d="M469 256c0-54.667-18.333-102.33-55-142.997s-82-63.667-136-69v43c42 5.333 77.333 24.166 106 56.499s43 69.833 43 112.5-14.333 80.167-43 112.5-64 51.166-106 56.499v43c54-5.333 99.333-28.333 136-69S469 310.667 469 256zM121 91.004l30 30c24.667-18.667 52.667-30 84-34v-43c-42 4-80 19.667-114 47zm-34 144c4-31.333 15.333-59 34-83l-30-31c-27.333 34-43 72-47 114h43zm34 126c-18.667-24.667-30-52.667-34-84H44c4 42 19.667 80 47 114zm114 64c-31.333-4-59.333-15.333-84-34l-30 30c34 27.333 72 43 114 47v-43zm43-122 63-47-128-96z"/><glyph glyph-name="uniE069" unicode="web_asset" d="M405 128v213H107V128h298zm0 299c12 0 22.167-4.333 30.5-13s12.5-18.667 12.5-30V128c0-11.333-4.333-21.333-13-30s-18.667-13-30-13H107c-12 0-22.167 4.333-30.5 13S64 116.667 64 128v256c0 11.333 4.167 21.333 12.5 30S95 427 107 427h298z"/><glyph glyph-name="uniE06A" unicode="fiber_pin" d="M427 192v128h-27v-75l-53 75h-27V192h27v75l54-75h26zm-160 0v128h-32V192h32zm-75 75v21c0 9.333-3 17-9 23s-13.667 9-23 9H85V192h32v43h43c9.333 0 17 3.167 23 9.5s9 13.833 9 22.5zm235 160c12 0 22-4.167 30-12.5s12-18.5 12-30.5V128c0-12-4-22.167-12-30.5S439 85 427 85H85c-12 0-22 4.167-30 12.5S43 116 43 128v256c0 12 4 22.167 12 30.5S73 427 85 427h342zM117 288h43v-21h-43v21z"/><glyph glyph-name="uniE06B" unicode="branding_watermark" d="M448 107v128H256V107h192zm0 341c11.333 0 21.333-4.333 30-13s13-18.667 13-30V107c0-11.333-4.333-21.333-13-30s-18.667-13-30-13H64c-11.333 0-21.333 4.333-30 13s-13 18.667-13 30v298c0 11.333 4.333 21.333 13 30s18.667 13 30 13h384z"/><glyph glyph-name="uniE06C" unicode="call_to_action" d="M448 107v64H64v-64h384zm0 341c11.333 0 21.333-4.333 30-13s13-18.667 13-30V107c0-11.333-4.333-21.333-13-30s-18.667-13-30-13H64c-11.333 0-21.333 4.333-30 13s-13 18.667-13 30v298c0 11.333 4.333 21.333 13 30s18.667 13 30 13h384z"/><glyph glyph-name="uniE06D" unicode="featured_play_list" d="M256 363v42H64v-42h192zm0-86v43H64v-43h192zm192 171c11.333 0 21.333-4.333 30-13s13-18.667 13-30V107c0-11.333-4.333-21.333-13-30s-18.667-13-30-13H64c-11.333 0-21.333 4.333-30 13s-13 18.667-13 30v298c0 11.333 4.333 21.333 13 30s18.667 13 30 13h384z"/><glyph glyph-name="uniE06E" unicode="featured_video" d="M256 256v149H64V256h192zm192 192c11.333 0 21.333-4.333 30-13s13-18.667 13-30V107c0-11.333-4.333-21.333-13-30s-18.667-13-30-13H64c-11.333 0-21.333 4.333-30 13s-13 18.667-13 30v298c0 11.333 4.333 21.333 13 30s18.667 13 30 13h384z"/><glyph glyph-name="uniE06F" unicode="note" d="M320 395V277h117zm149-96-.001-171.001c0-11.333-4.167-21.166-12.5-29.499S438.333 86 427 86L85 85c-11.333 0-21.166 4.333-29.499 13s-12.5 18.667-12.5 30v256c0 11.333 4.167 21.333 12.5 30S73.667 427 85 427h256z"/><glyph glyph-name="uniE070" unicode="video_call" d="M299 235v42h-64v64h-43v-64h-64v-42h64v-64h43v64h64zm64 53 85 85V139l-85 85v-75c0-6-2.167-11-6.5-15s-9.5-6-15.5-6H85c-6 0-11 2-15 6s-6 9-6 15v214c0 6 2 11 6 15s9 6 15 6h256c6 0 11.167-2 15.5-6s6.5-9 6.5-15v-75z"/><glyph glyph-name="uniE071" unicode="video_label" d="M448 171v234H64V171h384zm0 277c11.333 0 21.333-4.333 30-13s13-18.667 13-30V107c0-11.333-4.333-21.333-13-30s-18.667-13-30-13H64c-11.333 0-21.333 4.333-30 13s-13 18.667-13 30v298c0 11.333 4.333 21.333 13 30s18.667 13 30 13h384z"/><glyph glyph-name="uniE0AF" unicode="business" d="M384 192v-43h-43v43h43zm0 85v-42h-43v42h43zm43-170v213H256v-43h43v-42h-43v-43h43v-43h-43v-42h171zM213 363v42h-42v-42h42zm0-86v43h-42v-43h42zm0-85v43h-42v-43h42zm0-85v42h-42v-42h42zm-85 256v42H85v-42h43zm0-86v43H85v-43h43zm0-85v43H85v-43h43zm0-85v42H85v-42h43zm128 256h213V64H43v384h213v-85z"/><glyph glyph-name="uniE0B0" unicode="call" d="M141 282c32-62 79-109.001 141-141.001l47 47c6.667 6.667 14 8.334 22 5.001 24-8 49.333-12 76-12 6 0 11-2 15-6s6-9 6-15V85c0-6-2-11-6-15s-9-6-15-6c-100 0-185.5 35.5-256.5 106.5S64 327 64 427c0 6 2 11 6 15s9 6 15 6h75c6 0 11-2 15-6s6-9 6-15c0-26.667 4-52 12-76 2.667-8.667 1-16-5-22z"/><glyph glyph-name="uniE0B1" unicode="call_end" d="M256 320c-34.667 0-67.333-4.999-98-14.999v-66c0-10-4-16.667-12-20-21.333-10-40.333-23-57-39-4-4-9-6-15-6s-11 2-15 6l-53 53c-4 4-6 9-6 15s2 11 6 15c70 66.667 153.333 100 250 100s180-33.333 250-100c4-4 6-9 6-15s-2-11-6-15l-53-53c-4-4-9-6-15-6s-11 2-15 6c-16.667 16-35.667 29-57 39-8 3.333-12 9.666-12 18.999v66c-33.333 10.667-66 16-98 16z"/><glyph glyph-name="uniE0B2" unicode="call_made" d="M192 405h213V192h-42v141L115 85l-30 30 248 248H192v42z"/><glyph glyph-name="uniE0B3" unicode="call_merge" d="m160 341 96 96 96-96h-75V205L149 77l-30 30 116 115v119h-75zM363 77l-73 72 30 30 73-72z"/><glyph glyph-name="uniE0B4" unicode="call_missed" d="m418 363 30-30-192-192-149 149v-98H64v171h171v-43h-98l119-119z"/><glyph glyph-name="uniE0B5" unicode="call_received" d="M427 397 179 149h141v-42H107v213h42V179l248 248z"/><glyph glyph-name="uniE0B6" unicode="call_split" d="m213 427-49-49 113-113V85h-42v162L134 348l-49-49v128h128zm86 0h128V299l-49 49-62-62-30 30 62 62z"/><glyph glyph-name="uniE0B7" unicode="chat" d="M384 341v43H128v-43h256zm-85-128v43H128v-43h171zM128 320v-43h256v43H128zm299 149c11.333 0 21.167-4.167 29.5-12.5s12.5-18.166 12.5-29.499v-256c0-11.333-4.167-21.333-12.5-30s-18.166-13-29.499-13h-299l-85-85v384c0 11.333 4.167 21.166 12.5 29.499S73.667 469 85 469h342z"/><glyph glyph-name="uniE0B8" unicode="clear_all" d="M149 363h299v-43H149v43zM64 149v43h299v-43H64zm43 86v42h298v-42H107z"/><glyph glyph-name="uniE0B9" unicode="comment" d="M384 341v43H128v-43h256zm0-64v43H128v-43h256zm0-64v43H128v-43h256zm85 214 .001-384-85 85h-299c-11.333 0-21.166 4.333-29.499 13s-12.5 18.667-12.5 30v256c0 11.333 4.167 21.166 12.5 29.499s18.166 12.5 29.499 12.5h342c11.333 0 21.166-4.167 29.499-12.5S469 438.333 469 427z"/><glyph glyph-name="uniE0BA" unicode="contacts" d="M363 149v32c0 16-12.167 29-36.5 39s-47.833 15-70.5 15-46.167-5-70.5-15-36.5-23-36.5-39v-32h214zM256 368c-13.333 0-24.666-4.667-33.999-14s-14-20.666-14-33.999 4.667-24.666 14-33.999 20.666-14 33.999-14 24.666 4.667 33.999 14 14 20.666 14 33.999-4.667 24.666-14 33.999-20.666 14-33.999 14zm171 59c11.333 0 21.166-4.333 29.499-13s12.5-18.667 12.5-30V128c0-11.333-4.167-21.333-12.5-30S438.333 85 427 85H85c-11.333 0-21.166 4.333-29.499 13s-12.5 18.667-12.5 30v256c0 11.333 4.167 21.333 12.5 30S73.667 427 85 427h342zM85 0v43h342V0H85zm342 512v-43H85v43h342z"/><glyph glyph-name="uniE0BB" unicode="dialer_sip" d="M427 181c6 0 11-2 15-6s6-9 6-15V85c0-6-2-11-6-15s-9-6-15-6c-100 0-185.5 35.5-256.5 106.5S64 327 64 427c0 6 2 11 6 15s9 6 15 6h75c6 0 11-2 15-6s6-9 6-15c0-26.667 4-52 12-76 2.667-8.667 1-16-5-22l-47-47c31.333-61.333 78.333-108.333 141-141l47 47c6 6 13.333 7.667 22 5 24-8 49.333-12 76-12zm0 224v22h-22v-22h22zm-43 43h64v-64h-43v-43h-21v107zm-64-43v-64h-64v22h43v21h-43v64h64v-21h-43v-22h43zm43 43V341h-22v107h22z"/><glyph glyph-name="uniE0BC" unicode="dialpad" d="M256 491c11.333 0 21.333-4.333 30-13s13-18.667 13-30-4.333-21.333-13-30-18.667-13-30-13-21.333 4.333-30 13-13 18.667-13 30 4.333 21.333 13 30 18.667 13 30 13zm0-128c11.333 0 21.333-4.333 30-13s13-18.667 13-30-4.333-21.333-13-30-18.667-13-30-13-21.333 4.333-30 13-13 18.667-13 30 4.333 21.333 13 30 18.667 13 30 13zm128 0c11.333 0 21.333-4.333 30-13s13-18.667 13-30-4.333-21.333-13-30-18.667-13-30-13-21.333 4.333-30 13-13 18.667-13 30 4.333 21.333 13 30 18.667 13 30 13zm0-128c11.333 0 21.333-4.333 30-13s13-18.667 13-30-4.333-21.333-13-30-18.667-13-30-13-21.333 4.333-30 13-13 18.667-13 30 4.333 21.333 13 30 18.667 13 30 13zm-128 0c11.333 0 21.333-4.333 30-13s13-18.667 13-30-4.333-21.333-13-30-18.667-13-30-13-21.333 4.333-30 13-13 18.667-13 30 4.333 21.333 13 30 18.667 13 30 13zm128 170c-11.333 0-21.333 4.333-30 13s-13 18.667-13 30 4.333 21.333 13 30 18.667 13 30 13 21.333-4.333 30-13 13-18.667 13-30-4.333-21.333-13-30-18.667-13-30-13zM128 235c11.333 0 21.333-4.333 30-13s13-18.667 13-30-4.333-21.333-13-30-18.667-13-30-13-21.333 4.333-30 13-13 18.667-13 30 4.333 21.333 13 30 18.667 13 30 13zm0 128c11.333 0 21.333-4.333 30-13s13-18.667 13-30-4.333-21.333-13-30-18.667-13-30-13-21.333 4.333-30 13-13 18.667-13 30 4.333 21.333 13 30 18.667 13 30 13zm0 128c11.333 0 21.333-4.333 30-13s13-18.667 13-30-4.333-21.333-13-30-18.667-13-30-13-21.333 4.333-30 13-13 18.667-13 30 4.333 21.333 13 30 18.667 13 30 13zm128-384c11.333 0 21.333-4.333 30-13s13-18.667 13-30-4.333-21.333-13-30-18.667-13-30-13-21.333 4.333-30 13-13 18.667-13 30 4.333 21.333 13 30 18.667 13 30 13z"/><glyph glyph-name="uniE0BE" unicode="email" d="M427 341v43L256 277 85 384v-43l171-106zm0 86c11.333 0 21.166-4.333 29.499-13s12.5-18.667 12.5-30V128c0-11.333-4.167-21.333-12.5-30S438.333 85 427 85H85c-11.333 0-21.166 4.333-29.499 13s-12.5 18.667-12.5 30v256c0 11.333 4.167 21.333 12.5 30S73.667 427 85 427h342z"/><glyph glyph-name="uniE0BF" unicode="forum" d="M363 256c0-6-2.167-11-6.5-15s-9.5-6-15.5-6H128l-85-86v299c0 6 2 11 6 15s9 6 15 6h277c6 0 11.167-2 15.5-6s6.5-9 6.5-15V256zm85 128c6 0 11-2 15-6s6-9 6-15V43l-85 85H149c-6 0-11 2-15 6s-6 9-6 15v43h277v192h43z"/><glyph glyph-name="uniE0C3" unicode="import_export" d="M341 149h64l-85-85-85 85h64v150h42V149zM192 448l85-85h-64V213h-42v150h-64z"/><glyph glyph-name="uniE0C4" unicode="invert_colors_off" d="m256 403-49-48-30 30 79 79 121-121c25.333-25.333 41-55.833 47-91.5s1.667-69.167-13-100.5L256 305v98zm0-309v103.001l-102 102c-17.333-22.667-26-48.334-26-77.001 0-34.667 12.667-64.667 38-90s55.333-38 90-38zm185-26.999 6.999-8-27-27-58 58c-31.333-25.333-67-38-107-38-47.333 0-87.666 16.667-120.999 50-30.667 31.333-47.167 68.833-49.5 112.5s10.167 82.167 37.5 115.5l-59 59 27 27z"/><glyph glyph-name="uniE0C6" unicode="live_help" d="M321 293c13.333 13.333 20 29.333 20 48 0 23.333-8.333 43.5-25 60.5S279.333 427 256 427s-43.333-8.5-60-25.5-25-37.167-25-60.5h42c0 11.333 4.333 21.333 13 30s18.667 13 30 13 21.333-4.333 30-13 13-18.667 13-30-4.333-21.333-13-30l-26-27c-16.667-18-25-38-25-60v-11h42c0 22.667 8.333 43 25 61zm-44-165v43h-42v-43h42zm128 341c11.333 0 21.333-4.167 30-12.5s13-18.166 13-29.499v-299c0-11.333-4.333-21.333-13-30s-18.667-13-30-13h-85l-64-64-64 64h-85c-12 0-22.167 4.333-30.5 13s-12.5 18.667-12.5 30v299c0 11.333 4.167 21.166 12.5 29.499S95 469 107 469h298z"/><glyph glyph-name="uniE0C7" unicode="location_off" d="M250 267 427 90.999l-27-27-72 71c-10.667-16-22-31.667-34-47S272.667 61.333 266 54l-10-11-16 18.5c-6.667 7.667-18.667 23-36 46s-32.5 45.333-45.5 67-24.833 46.167-35.5 73.5-16 51.333-16 72c0 7.333 1.333 18.333 4 33l-68 68 27 27 178-178zm6 105.999c-15.333 0-28.333-6-39-18l-69 68c29.333 30.667 65.333 46 108 46 41.333 0 76.5-14.5 105.5-43.5s43.5-64.167 43.5-105.5c0-32-12-71-36-117l-77 78c11.333 10 17 23 17 39 0 14.667-5.167 27.167-15.5 37.5s-22.833 15.5-37.5 15.5z"/><glyph glyph-name="uniE0C8" unicode="location_on" d="M256 267c14.667 0 27.167 5.167 37.5 15.5S309 305.333 309 320s-5.167 27.167-15.5 37.5S270.667 373 256 373s-27.167-5.167-37.5-15.5S203 334.667 203 320s5.167-27.167 15.5-37.5S241.333 267 256 267zm0 202c41.333 0 76.5-14.5 105.5-43.5S405 361.333 405 320c0-20.667-5.167-44.334-15.5-71.001s-22.833-51.667-37.5-75-29.167-45.166-43.5-65.499S282 72 272 60l-16-17-16 18.5c-6.667 7.667-18.667 23-36 46s-32.5 45.333-45.5 67-24.833 46.167-35.5 73.5-16 51.333-16 72c0 41.333 14.5 76.5 43.5 105.5S214.667 469 256 469z"/><glyph glyph-name="uniE0C9" unicode="message" d="M384 341v43H128v-43h256zm0-64v43H128v-43h256zm0-64v43H128v-43h256zm43 256c11.333 0 21.167-4.167 29.5-12.5s12.5-18.166 12.5-29.499v-256c0-11.333-4.167-21.333-12.5-30s-18.166-13-29.499-13h-299l-85-85v384c0 11.333 4.167 21.166 12.5 29.499S73.667 469 85 469h342z"/><glyph glyph-name="uniE0CA" unicode="chat_bubble" d="M427 469c11.333 0 21.167-4.167 29.5-12.5s12.5-18.166 12.5-29.499v-256c0-11.333-4.167-21.333-12.5-30s-18.166-13-29.499-13h-299l-85-85v384c0 11.333 4.167 21.166 12.5 29.499S73.667 469 85 469h342z"/><glyph glyph-name="uniE0CB" unicode="chat_bubble_outline" d="M427 171v256H85V128l43 43h299zm0 298c11.333 0 21.167-4.167 29.5-12.5s12.5-18.166 12.5-29.499v-256c0-11.333-4.167-21.333-12.5-30s-18.166-13-29.499-13h-299l-85-85v384c0 11.333 4.167 21.166 12.5 29.499S73.667 469 85 469h342z"/><glyph glyph-name="uniE0CC" unicode="no_sim" d="M78 429 450.999 57l-28-28-40 41c-8-4-14.667-6-20-6h-214c-11.333 0-21.166 4.333-29.499 13S107 95.667 107 107v239l-56 56zm326.999-24L405 156 163 398l50 50h150c11.333 0 21.166-4.333 29.499-13s12.5-18.667 12.5-30z"/><glyph glyph-name="uniE0CD" unicode="phone" d="M141 282c32-62 79-109.001 141-141.001l47 47c6.667 6.667 14 8.334 22 5.001 24-8 49.333-12 76-12 6 0 11-2 15-6s6-9 6-15V85c0-6-2-11-6-15s-9-6-15-6c-100 0-185.5 35.5-256.5 106.5S64 327 64 427c0 6 2 11 6 15s9 6 15 6h75c6 0 11-2 15-6s6-9 6-15c0-26.667 4-52 12-76 2.667-8.667 1-16-5-22z"/><glyph glyph-name="uniE0CE" unicode="portable_wifi_off" d="m70 459 21-22L448 80l-27-27-160 161h-1l-4-1c-11.333 0-21.333 4.333-30 13s-13 18.667-13 30l1 4-34 34c-6-12-9-24.667-9-38 0-32.667 14-57.334 42-74.001l-21-37c-19.333 11.333-34.833 26.833-46.5 46.5s-17.5 41.167-17.5 64.5c0 25.333 6.667 48.333 20 69l-30 31c-22-30.667-33-64-33-100 0-30.667 7.667-59.167 23-85.5s36-47.166 62-62.499l-21-37c-32.667 18.667-58.5 44.5-77.5 77.5S43 217.333 43 256c0 49.333 14.667 93 44 131l-44 45zm186-32c-28.667 0-55.333-6.667-80-20l-31 31c33.333 20.667 70.333 31 111 31 58.667 0 108.834-20.833 150.501-62.5s62.5-91.834 62.5-150.501c0-40.667-10.333-77.667-31-111l-32 31c14 26 21 52.667 21 80 0 46.667-16.833 86.834-50.5 120.501S302.667 427 256 427zm119.001-219-35 35c.667 2.667 1 7 1 13 0 23.333-8.333 43.333-25 60s-36.667 25-60 25c-6 0-10.333-.333-13-1l-35 35c14.667 6 30.667 9 48 9 35.333 0 65.5-12.5 90.5-37.5s37.5-55.167 37.5-90.5c0-17.333-3-33.333-9-48z"/><glyph glyph-name="uniE0CF" unicode="contact_phone" d="M381 213c-5.333 14-8 28.333-8 43s2.667 29 8 43h35l32 42-42 43c-29.333-22-49-50.333-59-85-4-14-6-28.333-6-43s2-29 6-43c10-34.667 29.667-63 59-85l42 43-32 42h-35zm-82-85v21c0 19.333-14.667 35.166-44 47.499s-57.333 18.5-84 18.5-54.667-6.167-84-18.5S43 168.333 43 149v-21h256zM171 384c-17.333 0-32.333-6.333-45-19s-19-27.667-19-45 6.333-32.333 19-45 27.667-19 45-19 32.333 6.333 45 19 19 27.667 19 45-6.333 32.333-19 45-27.667 19-45 19zm298 64c11.333 0 21.333-4.333 30-13s13-18.667 13-30V107c0-11.333-4.333-21.333-13-30s-18.667-13-30-13H43c-11.333 0-21.333 4.333-30 13S0 95.667 0 107v298c0 11.333 4.333 21.333 13 30s18.667 13 30 13h426z"/><glyph glyph-name="uniE0D0" unicode="contact_mail" d="M469 256v128H299V256h170zM299 128v21c0 19.333-14.667 35.166-44 47.499s-57.333 18.5-84 18.5-54.667-6.167-84-18.5S43 168.333 43 149v-21h256zM171 384c-17.333 0-32.333-6.333-45-19s-19-27.667-19-45 6.333-32.333 19-45 27.667-19 45-19 32.333 6.333 45 19 19 27.667 19 45-6.333 32.333-19 45-27.667 19-45 19zm298 64c11.333 0 21.333-4.333 30-13s13-18.667 13-30V107c0-11.333-4.333-21.333-13-30s-18.667-13-30-13H43c-11.333 0-21.333 4.333-30 13S0 95.667 0 107v298c0 11.333 4.333 21.333 13 30s18.667 13 30 13h426zm-21-107-64-42-64 42v22l64-43 64 43v-22z"/><glyph glyph-name="uniE0D1" unicode="ring_volume" d="M137 303c-49.333 49.333-74.667 74.333-76 75l30 31 76-76zm139.999 166V363h-42v106h42zm174-91-76-75-30 30 76 76zm55-222c4-4 6.002-8.998 6.002-14.998s-2-11-6-15l-53-53c-4-4-9-6-15-6s-11 2-15 6c-18.667 17.333-37.667 30.666-57 39.999-8 3.333-12 9.666-12 18.999v66c-30.667 10-63.334 15-98.001 15s-67.334-5-98.001-15v-66c0-10-4-16.667-12-20-21.333-10-40.333-23-57-39-4-4-9-6-15-6s-11 2-15 6l-53 53c-4 4-6 9-6 15s2 11 6 15c70 66.667 153.333 100 250 100s180-33.333 250-100z"/><glyph glyph-name="uniE0D2" unicode="speaker_phone" d="M320 85v171H192V85h128zm-3 213c6.667 0 12.334-2.332 17.001-6.999s7-10.334 7-17.001V67c0-6.667-2.333-12.334-7-17.001s-10.334-7-17.001-7H195c-6.667 0-12.334 2.333-17.001 7s-7 10.334-7 17.001v207c0 6.667 2.333 12.5 7 17.5S188.333 299 195 299zm-61 193.001c64 0 119-23 165-69l-30-30c-37.333 37.333-82.333 56-135 56s-97.667-18.667-135-56l-30 30c46 46 101 69 165 69zm-107-130c29.333 29.333 65 44 107 44s77.667-14.667 107-44l-31-30c-20.667 20.667-46 31-76 31s-55.333-10.333-76-31z"/><glyph glyph-name="uniE0D3" unicode="stay_current_landscape" d="M405 363H107V149h298v214zm-383 0c0 11.333 4.168 21.166 12.501 29.499s18.166 12.5 29.499 12.5h384c11.333 0 21.333-4.167 30-12.5s13-18.166 13-29.499V149c0-11.333-4.333-21.166-13-29.499s-18.667-12.5-30-12.5H64c-11.333 0-21.333 4.167-30 12.5S21 137.667 21 149z"/><glyph glyph-name="uniE0D4" unicode="stay_current_portrait" d="M363 107v298H149V107h214zm0 383c11.333 0 21.166-4.168 29.499-12.501s12.5-18.166 12.5-29.499V64c0-11.333-4.167-21.333-12.5-30S374.333 21 363 21H149c-11.333 0-21.166 4.333-29.499 13s-12.5 18.667-12.5 30v384c0 11.333 4.167 21.333 12.5 30s18.166 13 29.499 13z"/><glyph glyph-name="uniE0D5" unicode="stay_primary_landscape" d="M405 363H107V149h298v214zm-383 0c0 11.333 4.168 21.166 12.501 29.499s18.166 12.5 29.499 12.5h384c11.333 0 21.333-4.167 30-12.5s13-18.166 13-29.499V149c0-11.333-4.333-21.166-13-29.499s-18.667-12.5-30-12.5H64c-11.333 0-21.333 4.167-30 12.5S21 137.667 21 149z"/><glyph glyph-name="uniE0D6" unicode="stay_primary_portrait" d="M363 107v298H149V107h214zm0 383c11.333 0 21.166-4.168 29.499-12.501s12.5-18.166 12.5-29.499V64c0-11.333-4.167-21.333-12.5-30S374.333 21 363 21H149c-11.333 0-21.166 4.333-29.499 13s-12.5 18.667-12.5 30v384c0 11.333 4.167 21.333 12.5 30s18.166 13 29.499 13z"/><glyph glyph-name="uniE0D7" unicode="swap_calls" d="m384 427 85-86h-64V192c0-23.333-8.333-43.333-25-60s-36.667-25-60-25-43.333 8.333-60 25-25 36.667-25 60v149c0 11.333-4.333 21.333-13 30s-18.667 13-30 13-21.333-4.333-30-13-13-18.667-13-30V192h64l-85-85-85 85h64v149c0 23.333 8.333 43.5 25 60.5s36.667 25.5 60 25.5 43.333-8.5 60-25.5 25-37.167 25-60.5V192c0-11.333 4.333-21.333 13-30s18.667-13 30-13 21.333 4.333 30 13 13 18.667 13 30v149h-64z"/><glyph glyph-name="uniE0D8" unicode="textsms" d="M363 277v43h-43v-43h43zm-86 0v43h-42v-43h42zm-85 0v43h-43v-43h43zm235 192c11.333 0 21.167-4.167 29.5-12.5s12.5-18.166 12.5-29.499v-256c0-11.333-4.167-21.333-12.5-30s-18.166-13-29.499-13h-299l-85-85v384c0 11.333 4.167 21.166 12.5 29.499S73.667 469 85 469h342z"/><glyph glyph-name="uniE0D9" unicode="voicemail" d="M395 192c20.667 0 38.167 7.333 52.5 22s21.5 32.334 21.5 53.001-7.167 38.167-21.5 52.5-31.833 21.5-52.5 21.5-38.334-7.167-53.001-21.5-22-31.833-22-52.5 7.333-38.334 22-53.001 32.334-22 53.001-22zm-278 0c20.667 0 38.334 7.333 53.001 22s22 32.334 22 53.001-7.333 38.167-22 52.5-32.334 21.5-53.001 21.5-38.167-7.167-52.5-21.5-21.5-31.833-21.5-52.5S50.167 228.667 64.5 214s31.833-22 52.5-22zm278 192c32.667 0 60.334-11.333 83.001-34s34-50.334 34-83.001-11.333-60.5-34-83.5-50.334-34.5-83.001-34.5H117c-32.667 0-60.334 11.5-83.001 34.5s-34 50.833-34 83.5 11.333 60.334 34 83.001S84.333 384 117 384s60.5-11.333 83.5-34 34.5-50.334 34.5-83.001c0-28.667-9-53.667-27-75h96c-18 21.333-27 46.333-27 75 0 32.667 11.5 60.334 34.5 83.001s50.833 34 83.5 34z"/><glyph glyph-name="uniE0DA" unicode="vpn_key" d="M149 213c11.333 0 21.333 4.333 30 13s13 18.667 13 30-4.333 21.333-13 30-18.667 13-30 13-21.166-4.333-29.499-13-12.5-18.667-12.5-30 4.167-21.333 12.5-30 18.166-13 29.499-13zm121 86h221v-86h-43v-85h-85v85h-93c-8.667-25.333-24-45.833-46-61.5S177 128 149 128c-35.333 0-65.5 12.5-90.5 37.5S21 220.667 21 256s12.5 65.5 37.5 90.5S113.667 384 149 384c28 0 53-7.833 75-23.5s37.333-36.167 46-61.5z"/><glyph glyph-name="uniE0DB" unicode="phonelink_erase" d="M405 491c11.333 0 21.333-4.333 30-13s13-18.667 13-30V64c0-11.333-4.333-21.333-13-30s-18.667-13-30-13H192c-11.333 0-21.333 4.333-30 13s-13 18.667-13 30v64h43V85h213v342H192v-43h-43v64c0 11.333 4.333 21.333 13 30s18.667 13 30 13h213zM277 337l-85-85 85-86-21-21-85 85-86-85-21 21 85 86-85 85 21 21 86-85 85 85z"/><glyph glyph-name="uniE0DC" unicode="phonelink_lock" d="M203 277v32c0 8-3.167 14.667-9.5 20s-13.833 8-22.5 8-16.167-2.667-22.5-8-9.5-12-9.5-20v-32h64zm27 0c6.667 0 12.668-2.668 18.001-8.001s8-11.666 8-18.999v-75c0-6.667-2.833-12.667-8.5-18s-12.167-8-19.5-8h-117c-6.667 0-12.667 2.833-18 8.5s-8 12.167-8 19.5v75c0 6.667 2.667 12.5 8 17.5s11.333 7.5 18 7.5v32c0 14.667 6.167 27.334 18.5 38.001s26.166 16 41.499 16 29-5.333 41-16 18-23.334 18-38.001v-32zm175.001 213.999c11.333 0 21.333-4.333 30-13s13-18.667 13-30v-384c0-11.333-4.333-21.333-13-30s-18.667-13-30-13h-213c-11.333 0-21.333 4.333-30 13s-13 18.667-13 30v64h43v-43h213v342h-213v-43h-43v64c0 11.333 4.333 21.333 13 30s18.667 13 30 13h213z"/><glyph glyph-name="uniE0DD" unicode="phonelink_ring" d="M299 85v342H85V85h214zm0 406c11.333 0 21.166-4.333 29.499-13s12.5-18.667 12.5-30V64c0-11.333-4.167-21.333-12.5-30S310.333 21 299 21H85c-11.333 0-21.166 4.333-29.499 13s-12.5 18.667-12.5 30v384c0 11.333 4.167 21.333 12.5 30S73.667 491 85 491h214zm85-188c13.333-14 20-29.667 20-47s-6.667-32.333-20-45l-21 22c12 16.667 12 33 0 49zm45 45c26.667-25.333 40-55.832 40-91.499S455.667 190.667 429 166l-22 22c19.333 20.667 29 44.167 29 70.5s-9.667 48.833-29 67.5z"/><glyph glyph-name="uniE0DE" unicode="phonelink_setup" d="M405 491c11.333 0 21.333-4.333 30-13s13-18.667 13-30V64c0-11.333-4.333-21.333-13-30s-18.667-13-30-13H192c-11.333 0-21.333 4.333-30 13s-13 18.667-13 30v64h43V85h213v342H192v-43h-43v64c0 11.333 4.333 21.333 13 30s18.667 13 30 13h213zM171 213c11.333 0 21.166 4.333 29.499 13s12.5 18.667 12.5 30-4.167 21.333-12.5 30-18.166 13-29.499 13-21.333-4.333-30-13-13-18.667-13-30 4.333-21.333 13-30 18.667-13 30-13zm81 32 22.998-19.001c2.667-2.667 3.334-4.667 2.001-6l-21-37c-1.333-1.333-3.333-2-6-2l-28 11c-9.333-6-15.666-9.667-18.999-11l-5-27c-3.333-3.333-5.333-5-6-5h-43c-1.333 0-2.5.667-3.5 2s-1.167 2.333-.5 3l-4 27c-3.333 1.333-9.666 5-18.999 11l-30-9c-1.333-1.333-3.666-.333-6.999 3l-21 36c0 2.667.667 5.334 2 8.001l24 17v22l-24 17c-2.667 2.667-3.334 4.667-2.001 6l21 37c1.333 1.333 3.666 2 6.999 2l27-11c8.667 6 15.334 9.667 20.001 11l4 27c3.333 3.333 5.333 5 6 5h43c4 0 6-1.667 6-5l5-27c3.333-1.333 9.666-5 18.999-11l28 9c1.333.667 3.333-.333 6-3l21-36c0-2.667-.667-4.667-2-6l-23-17v-22z"/><glyph glyph-name="uniE0DF" unicode="present_to_all" d="M213 256h-42l85 85 85-85h-42v-85h-86v85zm235-150v300H64V106h384zm0 342c12 0 22.167-4.167 30.5-12.5S491 417 491 405V107c0-12-4.167-22.167-12.5-30.5S460 64 448 64H64c-12 0-22.167 4.167-30.5 12.5S21 95 21 107v298c0 12 4.167 22.167 12.5 30.5S52 448 64 448h384z"/><glyph glyph-name="uniE0E0" unicode="import_contacts" d="M448 117v246c-22 6.667-47 10-75 10-43.333 0-82.333-10.667-117-32V96c34.667 21.333 73.667 32 117 32 26 0 51-3.667 75-11zm-75 299c50.667 0 90-10.667 118-32V73c0-2.667-1.167-5.167-3.5-7.5S482.667 62 480 62c-2 0-3.667.333-5 1-27.333 14.667-61.333 22-102 22-43.333 0-82.333-10.667-117-32-28.667 21.333-67.667 32-117 32-36 0-70-7.667-102-23-.667 0-1.5-.167-2.5-.5S32.667 61 32 61c-2.667 0-5.167 1-7.5 3S21 68.333 21 71v313c28.667 21.333 68 32 118 32 49.333 0 88.333-10.667 117-32 28.667 21.333 67.667 32 117 32z"/><glyph glyph-name="uniE0E1" unicode="mail_outline" d="m256 277 171 107H85zm171-149v213L256 235 85 341V128h342zm0 299c11.333 0 21.166-4.333 29.499-13s12.5-18.667 12.5-30V128c0-11.333-4.167-21.333-12.5-30S438.333 85 427 85H85c-11.333 0-21.166 4.333-29.499 13s-12.5 18.667-12.5 30v256c0 11.333 4.167 21.333 12.5 30S73.667 427 85 427h342z"/><glyph glyph-name="uniE0E2" unicode="screen_share" d="m277 203 85.999 80-86 80v-46c-70-10-112.667-51.667-128-125 28.667 38.667 71.334 58 128.001 58v-47zm149.999-75h85V85h-512v43h85c-12 0-22 4.167-30 12.5s-12 18.5-12 30.5v213c0 12 4 22.167 12 30.5s18 12.5 30 12.5h342c11.333 0 21.166-4.167 29.499-12.5s12.5-18.5 12.5-30.5V171c0-11.333-4.167-21.333-12.5-30s-18.166-13-29.499-13z"/><glyph glyph-name="uniE0E3" unicode="stop_screen_share" d="M149 192c19.333 26.667 45.333 44.001 78 52.001l-34 34c-21.333-20.667-36-49.334-44-86.001zM51 475.001 472 54.002l-27-27-58 58H0v43h85c-12 0-22 4.167-30 12.5s-12 18.166-12 29.499v214c0 12.667 4.667 23 14 31l-33 33zm418-304.999c0-16.667-7.334-29-22.001-37l-118 118 34 32-86 79v-45c-1.333-.667-3.166-1-5.499-1s-4.166-.333-5.499-1l-112 111h273c11.333 0 21.166-4 29.499-12s12.5-18 12.5-30v-214zm-16.001-42h59v-43h-17z"/><glyph glyph-name="uniE0E4" unicode="call_missed_outgoing" d="m64 333 30 30 162-162 119 119h-98v43h171V192h-43v98L256 141z"/><glyph glyph-name="uniE0E5" unicode="rss_feed" d="M85 297c58.667 0 108.667-20.667 150-62s62-91.333 62-150h-61c0 41.333-14.833 76.833-44.5 106.5S126.333 236 85 236v61zm0 120c91.333 0 169.5-32.5 234.5-97.5S417 176.333 417 85h-60c0 75.333-26.5 139.5-79.5 192.5S160.333 357 85 357v60zm0-285c0 12.667 4.5 23.5 13.5 32.5S118.667 178 132 178s24.333-4.333 33-13 13-19.667 13-33-4.5-24.5-13.5-33.5S144.667 85 132 85c-13.333 0-24.5 4.5-33.5 13.5S85 118.667 85 132z"/><glyph glyph-name="uniE145" unicode="add" d="M405 235H277V107h-42v128H107v42h128v128h42V277h128v-42z"/><glyph glyph-name="uniE146" unicode="add_box" d="M363 235v42h-86v86h-42v-86h-86v-42h86v-86h42v86h86zm42 213c11.333 0 21.333-4.333 30-13s13-18.667 13-30V107c0-11.333-4.333-21.333-13-30s-18.667-13-30-13H107c-12 0-22.167 4.333-30.5 13S64 95.667 64 107v298c0 11.333 4.167 21.333 12.5 30S95 448 107 448h298z"/><glyph glyph-name="uniE147" unicode="add_circle" d="M363 235v42h-86v86h-42v-86h-86v-42h86v-86h42v86h86zM256 469c58.667 0 108.834-20.833 150.501-62.5s62.5-91.834 62.5-150.501-20.833-108.834-62.5-150.501-91.834-62.5-150.501-62.5-108.834 20.833-150.501 62.5-62.5 91.834-62.5 150.501 20.833 108.834 62.5 150.501S197.333 469 256 469z"/><glyph glyph-name="uniE148" unicode="add_circle_outline" d="M256 85c46.667 0 86.834 16.833 120.501 50.5s50.5 73.834 50.5 120.501-16.833 86.834-50.5 120.501-73.834 50.5-120.501 50.5-86.834-16.833-120.501-50.5-50.5-73.834-50.5-120.501 16.833-86.834 50.5-120.501S209.333 85 256 85zm0 384c58.667 0 108.834-20.833 150.501-62.5s62.5-91.834 62.5-150.501-20.833-108.834-62.5-150.501-91.834-62.5-150.501-62.5-108.834 20.833-150.501 62.5-62.5 91.834-62.5 150.501 20.833 108.834 62.5 150.501S197.333 469 256 469zm21-106v-86h86v-42h-86v-86h-42v86h-86v42h86v86h42z"/><glyph glyph-name="uniE149" unicode="archive" d="M109 405h294l-20 22H127zm147-266 117 117h-74v43h-86v-43h-74zm182 261c6.667-8 10-17 10-27V107c0-11.333-4.333-21.333-13-30s-18.667-13-30-13H107c-11.333 0-21.333 4.333-30 13s-13 18.667-13 30v266c0 10 3.333 19 10 27l29 36c6.667 8 15 12 25 12h256c10 0 18.333-4 25-12z"/><glyph glyph-name="uniE14A" unicode="backspace" d="m405 179-76 77 76 77-30 30-76-77-77 77-30-30 77-77-77-77 30-30 77 77 76-77zm64 269c11.333 0 21.333-4.333 30-13s13-18.667 13-30V107c0-11.333-4.333-21.333-13-30s-18.667-13-30-13H149c-13.333 0-24.666 6.333-33.999 19l-115 173 115 173c9.333 12.667 20.666 19 33.999 19h320z"/><glyph glyph-name="uniE14B" unicode="block" d="M256 85c46.667 0 86.833 16.832 120.5 50.499S427 209.333 427 256c0 40-12 75-36 105L151 121c30-24 65-36 105-36zM84.999 255.999C84.999 215.999 97 181 121 151l240 240c-30 24-65 36-105 36-46.667 0-86.834-16.833-120.501-50.5s-50.5-73.834-50.5-120.501zM256 469c58.667 0 108.834-20.833 150.501-62.5s62.5-91.834 62.5-150.501-20.833-108.834-62.5-150.501-91.834-62.5-150.501-62.5-108.834 20.833-150.501 62.5-62.5 91.834-62.5 150.501 20.833 108.834 62.5 150.501S197.333 469 256 469z"/><glyph glyph-name="uniE14C" unicode="clear" d="M405 375 286 256l119-119-30-30-119 119-119-119-30 30 119 119-119 119 30 30 119-119 119 119z"/><glyph glyph-name="uniE14D" unicode="content_copy" d="M405 64v299H171V64h234zm0 341c11.333 0 21.333-4.167 30-12.5s13-18.166 13-29.499v-299c0-11.333-4.333-21.333-13-30s-18.667-13-30-13H171c-11.333 0-21.333 4.333-30 13s-13 18.667-13 30v299c0 11.333 4.333 21.166 13 29.499s18.667 12.5 30 12.5h234zm-64 86 .001-43h-256V149h-42v299c0 11.333 4.167 21.333 12.5 30S73.667 491 85 491h256z"/><glyph glyph-name="uniE14E" unicode="content_cut" d="M405 448h64v-21L320 277l-43 43zM256 245c7.333 0 11 3.667 11 11s-3.667 11-11 11-11-3.667-11-11 3.667-11 11-11zM128 85c11.333 0 21.333 4.167 30 12.5s13 18.5 13 30.5-4.333 22.167-13 30.5-18.667 12.5-30 12.5-21.333-4.167-30-12.5S85 140 85 128s4.333-22.167 13-30.5S116.667 85 128 85zm0 256c11.333 0 21.333 4.167 30 12.5s13 18.5 13 30.5-4.333 22.167-13 30.5-18.667 12.5-30 12.5-21.333-4.167-30-12.5S85 396 85 384s4.333-22.167 13-30.5 18.667-12.5 30-12.5zm78 8L469 85V64h-64L256 213l-50-50c4.667-10 7-21.667 7-35 0-23.333-8.333-43.333-25-60s-36.667-25-60-25-43.333 8.333-60 25-25 36.667-25 60 8.333 43.333 25 60 36.667 25 60 25c13.333 0 25-2.333 35-7l50 50-50 50c-10-4.667-21.667-7-35-7-23.333 0-43.333 8.333-60 25s-25 36.667-25 60 8.333 43.333 25 60 36.667 25 60 25 43.333-8.333 60-25 25-36.667 25-60c0-13.333-2.333-25-7-35z"/><glyph glyph-name="uniE14F" unicode="content_paste" d="M405 85v342h-42v-64H149v64h-42V85h298zM256 469c-6 0-11-2-15-6s-6-9-6-15 2-11 6-15 9-6 15-6 11 2 15 6 6 9 6 15-2 11-6 15-9 6-15 6zm149 0c11.333 0 21.331-4.167 29.998-12.5s13-18.166 13-29.499v-342c0-11.333-4.333-21.166-13-29.499s-18.667-12.5-30-12.5h-298c-11.333 0-21.333 4.167-30 12.5s-13 18.166-13 29.499v342c0 11.333 4.333 21.166 13 29.499s18.667 12.5 30 12.5h89c4.667 12.667 12.334 23 23.001 31s23 12 37 12 26.333-4 37-12 18.334-18.333 23.001-31h89z"/><glyph glyph-name="uniE150" unicode="create" d="m442 362-39-39-80 80 39 39c4 4 9 6 15 6s11-2 15-6l50-50c4-4 6-9 6-15s-2-11-6-15zM64 144l236 236 80-80L144 64H64v80z"/><glyph glyph-name="uniE151" unicode="drafts" d="m256 235 176 110-176 103L80 345zm213 106-.002-213c0-11.333-4.167-21.333-12.5-30s-18.166-13-29.499-13h-342C73.666 85 63.833 89.333 55.5 98S43 116.667 43 128v213c0 16.667 6.667 29 20 37l193 113 193-113c13.333-8 20-20.333 20-37z"/><glyph glyph-name="uniE152" unicode="filter_list" d="M128 235v42h256v-42H128zM64 384h384v-43H64v43zm149-256v43h86v-43h-86z"/><glyph glyph-name="uniE153" unicode="flag" d="M307 384h120V171H277l-8 42H149V64h-42v363h192z"/><glyph glyph-name="uniE154" unicode="forward" d="M256 341v86l171-171L256 85v86H85v170h171z"/><glyph glyph-name="uniE155" unicode="gesture" d="M296 116c9.333 0 18.667 6.169 28 18.502s15.333 31.166 18 56.499c-20-5.333-35.333-14.333-46-27S280 140.667 280 132c0-4.667 1.667-8.5 5-11.5s7-4.5 11-4.5zM98.001 365.002l-37 35.999c6.667 8 12.667 14.667 18 20 18 18 37.333 27 58 27 12.667 0 24.834-5 36.501-15s17.5-25.333 17.5-46c0-20-9.333-43.333-28-70-18.667-26-31.667-51-39-75-4-11.333-5.167-21-3.5-29s5.167-12 10.5-12c6 0 14 6 24 18 14.667 14.667 31 34 49 58 32 40 67 60 105 60 28 0 48.833-9.167 62.5-27.5s21.5-38.833 23.5-61.5h53v-53h-52c-4-46-16.333-79.333-37-100s-42-31-64-31c-18.667 0-34.667 6.5-48 19.5s-20 28.5-20 46.5c0 22 10 45 30 69s48.333 39.333 85 46c-.667 5.333-1.167 9-1.5 11s-1.333 5.167-3 9.5-3.667 7.5-6 9.5-5.833 3.833-10.5 5.5-10.334 2.5-17.001 2.5c-18.667 0-47.667-24.333-87-73l-23.5-28.5c-4.333-5-10.5-10.833-18.5-17.5s-15.667-11-23-13c-23.333-7.333-43.333-3-60 13s-25 36-25 60c0 10 1.833 21 5.5 33s8.5 23.667 14.5 35 11.667 21.5 17 30.5 10.5 17.167 15.5 24.5 7.833 11.333 8.5 12c11.333 18.667 13.333 29.334 6 32.001-4.667 2-16.667-6.667-36-26z"/><glyph glyph-name="uniE156" unicode="inbox" d="M405 192v213H106V192h86c0-17.333 6.333-32.333 19-45s27.667-19 45-19 32.333 6.333 45 19 19 27.667 19 45h85zm0 256c11.333 0 21.333-4.167 30-12.5s13-18.5 13-30.5V107c0-11.333-4.333-21.333-13-30s-18.667-13-30-13H106c-12 0-22 4.167-30 12.5S64 95 64 107v298c0 12 4 22.167 12 30.5S94 448 106 448h299z"/><glyph glyph-name="uniE157" unicode="link" d="M363 363c29.333 0 54.333-10.5 75-31.5s31-46.167 31-75.5-10.333-54.5-31-75.5-45.667-31.5-75-31.5h-86v41h86c18 0 33.5 6.5 46.5 19.5S429 238 429 256s-6.5 33.5-19.5 46.5S381 322 363 322h-86v41h86zM171 235v42h170v-42H171zm-88 21c0-18 6.5-33.5 19.5-46.5S131 190 149 190h86v-41h-86c-29.333 0-54.333 10.5-75 31.5S43 226.667 43 256s10.333 54.5 31 75.5 45.667 31.5 75 31.5h86v-41h-86c-18 0-33.5-6.5-46.5-19.5S83 274 83 256z"/><glyph glyph-name="uniE158" unicode="mail" d="M427 341v43L256 277 85 384v-43l171-106zm0 86c11.333 0 21.166-4.333 29.499-13s12.5-18.667 12.5-30V128c0-11.333-4.167-21.333-12.5-30S438.333 85 427 85H85c-11.333 0-21.166 4.333-29.499 13s-12.5 18.667-12.5 30v256c0 11.333 4.167 21.333 12.5 30S73.667 427 85 427h342z"/><glyph glyph-name="uniE159" unicode="markunread" d="M427 341v43L256 277 85 384v-43l171-106zm0 86c11.333 0 21.166-4.333 29.499-13s12.5-18.667 12.5-30V128c0-11.333-4.167-21.333-12.5-30S438.333 85 427 85H85c-11.333 0-21.166 4.333-29.499 13s-12.5 18.667-12.5 30v256c0 11.333 4.167 21.333 12.5 30S73.667 427 85 427h342z"/><glyph glyph-name="uniE15A" unicode="redo" d="m393 286 76 77.001v-192H277l78 77c-32 26.667-68.667 40-110 40-37.333 0-70.833-10.833-100.5-32.5S94.333 205.667 83 171l-50 16c14.667 45.333 41.5 82.333 80.5 111s82.833 43 131.5 43c56.667 0 106-18.333 148-55z"/><glyph glyph-name="uniE15B" unicode="remove" d="M405 235H107v42h298v-42z"/><glyph glyph-name="uniE15C" unicode="remove_circle" d="M363 235v42H149v-42h214zM256 469c58.667 0 108.834-20.833 150.501-62.5s62.5-91.834 62.5-150.501-20.833-108.834-62.5-150.501-91.834-62.5-150.501-62.5-108.834 20.833-150.501 62.5-62.5 91.834-62.5 150.501 20.833 108.834 62.5 150.501S197.333 469 256 469z"/><glyph glyph-name="uniE15D" unicode="remove_circle_outline" d="M256 85c46.667 0 86.834 16.833 120.501 50.5s50.5 73.834 50.5 120.501-16.833 86.834-50.5 120.501-73.834 50.5-120.501 50.5-86.834-16.833-120.501-50.5-50.5-73.834-50.5-120.501 16.833-86.834 50.5-120.501S209.333 85 256 85zm0 384c58.667 0 108.834-20.833 150.501-62.5s62.5-91.834 62.5-150.501-20.833-108.834-62.5-150.501-91.834-62.5-150.501-62.5-108.834 20.833-150.501 62.5-62.5 91.834-62.5 150.501 20.833 108.834 62.5 150.501S197.333 469 256 469zM149 277h214v-42H149v42z"/><glyph glyph-name="uniE15E" unicode="reply" d="M213 320c69.333-10 122.832-36.5 160.499-79.5s62.5-94.833 74.5-155.5C396.666 157.667 318.333 194 213 194v-87L64 256l149 149v-85z"/><glyph glyph-name="uniE15F" unicode="reply_all" d="M277 320c69.333-10 122.832-36.5 160.499-79.5s62.5-94.833 74.5-155.5C460.666 157.667 382.333 194 277 194v-87L128 256l149 149v-85zm-128.001 21-85-85 85-85v-64l-149 149 149 149v-64z"/><glyph glyph-name="uniE160" unicode="report" d="M277 235v128h-42V235h42zm-21-92c7.333 0 13.833 2.833 19.5 8.5s8.5 12.167 8.5 19.5-2.833 13.666-8.5 18.999-12.167 8-19.5 8-13.833-2.667-19.5-8S228 178.333 228 171s2.833-13.833 8.5-19.5 12.167-8.5 19.5-8.5zm80 305 112-112V176L336 64H176L64 176v160l112 112h160z"/><glyph glyph-name="uniE161" unicode="save" d="M320 320v85H107v-85h213zm-64-213c17.333 0 32.333 6.333 45 19s19 27.667 19 45-6.333 32.333-19 45-27.667 19-45 19-32.333-6.333-45-19-19-27.667-19-45 6.333-32.333 19-45 27.667-19 45-19zm107 341 85-85V107c0-11.333-4.333-21.333-13-30s-18.667-13-30-13H107c-12 0-22.167 4.333-30.5 13S64 95.667 64 107v298c0 11.333 4.167 21.333 12.5 30S95 448 107 448h256z"/><glyph glyph-name="uniE162" unicode="select_all" d="M192 320V192h128v128H192zm-43-171v214h214V149H149zm171 256v43h43v-43h-43zm0-341v43h43V64h-43zm85 85v43h43v-43h-43zm0 171v43h43v-43h-43zm0-256v43h43c0-11.333-4.333-21.333-13-30s-18.667-13-30-13zm0 171v42h43v-42h-43zM235 64v43h42V64h-42zm-43 384v-43h-43v43h43zM64 149v43h43v-43H64zm43-85c-11.333 0-21.333 4.333-30 13s-13 18.667-13 30h43V64zm298 384c11.333 0 21.333-4.333 30-13s13-18.667 13-30h-43v43zm-128 0v-43h-42v43h42zM64 320v43h43v-43H64zm85-256v43h43V64h-43zM64 235v42h43v-42H64zm0 170c0 11.333 4.333 21.333 13 30s18.667 13 30 13v-43H64z"/><glyph glyph-name="uniE163" unicode="send" d="M43 64v149l320 43-320 43v149l448-192z"/><glyph glyph-name="uniE164" unicode="sort" d="M64 235v42h256v-42H64zm0 149h384v-43H64v43zm0-256v43h128v-43H64z"/><glyph glyph-name="uniE165" unicode="text_format" d="m256 384-40-107h80zm-53-145-20-47h-44l101 235h32l101-235h-44l-20 47H203zm-96-90h298v-42H107v42z"/><glyph glyph-name="uniE166" unicode="undo" d="M267 341c48.667 0 92.333-14.334 131-43.001s65.667-65.667 81-111l-50-16c-11.333 34.667-31.833 62.834-61.5 84.501S304.333 288 267 288c-41.333 0-78-13.333-110-40l78-77H43v192l76-77c42 36.667 91.333 55 148 55z"/><glyph glyph-name="uniE167" unicode="font_download" d="M340 117h45L276 395h-40L127 117h45l24 64h120zm87 352c11.333 0 21.166-4.167 29.499-12.5s12.5-18.166 12.5-29.499v-342c0-11.333-4.167-21.166-12.5-29.499s-18.166-12.5-29.499-12.5H85c-11.333 0-21.166 4.167-29.499 12.5s-12.5 18.166-12.5 29.499v342c0 11.333 4.167 21.166 12.5 29.499S73.667 469 85 469h342zM212 224l44 118 44-118h-88z"/><glyph glyph-name="uniE168" unicode="move_to_inbox" d="m341 299-85-86-85 86h42v64h86v-64h42zm64-107v213H106V192h86c0-17.333 6.333-32.333 19-45s27.667-19 45-19 32.333 6.333 45 19 19 27.667 19 45h85zm0 256c11.333 0 21.333-4.333 30-13s13-18.667 13-30V107c0-11.333-4.333-21.333-13-30s-18.667-13-30-13H106c-12 0-22 4.167-30 12.5S64 95 64 107v298c0 12 4 22.167 12 30.5S94 448 106 448h299z"/><glyph glyph-name="uniE169" unicode="unarchive" d="M109 405h294l-20 22H127zm147-96L139 192h74v-43h86v43h74zm182 92c6.667-8 10-17.333 10-28V107c0-11.333-4.333-21.333-13-30s-18.667-13-30-13H107c-12 0-22.167 4.333-30.5 13S64 95.667 64 107v266c0 10.667 3.333 20 10 28l29 35c6.667 8 15 12 25 12h256c10 0 18.333-4 25-12z"/><glyph glyph-name="uniE16A" unicode="next_week" d="m235 117 85 86-85 85-22-21 64-64-64-64zm-22 288v-42h86v42h-86zm86 43c11.333 0 21.168-4.167 29.501-12.5s12.5-18.5 12.5-30.5v-42h86c11.333 0 21.166-4.333 29.499-13s12.5-18.667 12.5-30V85c0-11.333-4.167-21.166-12.5-29.499s-18.166-12.5-29.499-12.5h-342c-11.333 0-21.166 4.167-29.499 12.5S43.002 73.667 43.002 85v235c0 11.333 4.167 21.333 12.5 30s18.166 13 29.499 13h86v42c0 11.333 4.167 21.333 12.5 30s18.166 13 29.499 13h86z"/><glyph glyph-name="uniE16B" unicode="weekend" d="M384 405c11.333 0 21.333-4.167 30-12.5s13-18.166 13-29.499v-46c-12.667-4.667-23-12.334-31-23.001s-12-23-12-37v-44H128v44c0 14-4 26.333-12 37s-18.333 18.334-31 23.001v46c0 11.333 4.333 21.166 13 29.499s18.667 12.5 30 12.5h256zm64-106c11.333 0 21.333-4.333 30-13s13-18.667 13-30V149c0-11.333-4.333-21.166-13-29.499s-18.667-12.5-30-12.5H64c-11.333 0-21.333 4.167-30 12.5S21 137.667 21 149v107c0 11.333 4.333 21.333 13 30s18.667 13 30 13 21.333-4.333 30-13 13-18.667 13-30v-64h298v64c0 11.333 4.333 21.333 13 30s18.667 13 30 13z"/><glyph glyph-name="uniE16C" unicode="delete_sweep" d="M299 405v-42H43v42h64l21 22h85l22-22h64zM64 128l-.001 213h213V128c0-11.333-4.167-21.333-12.5-30S246.333 85 235 85H107c-11.333 0-21.333 4.333-30 13s-13 18.667-13 30zm255.999 128h128v-43h-128v43zm0 85h149v-42h-149v42zm0-170h85v-43h-85v43z"/><glyph glyph-name="uniE16D" unicode="low_priority" d="M43 267c0 38 13.5 70.502 40.5 97.502s59.5 40.5 97.5 40.5h75v-42h-75c-26.667 0-49.334-9.333-68.001-28s-28-41.334-28-68.001 9.333-49.334 28-68.001 41.334-28 68.001-28h11v42l64-64-64-64v43h-11c-38 0-70.5 13.667-97.5 41S43 229 43 267zm256-95.998h170v-43H299v43zm0 117h170v-43H299v43zm0 117h170v-42H299v42z"/><glyph glyph-name="uniE190" unicode="access_alarm" d="M256 85c41.333 0 76.5 14.667 105.5 44S405 193.666 405 234.999s-14.5 76.5-43.5 105.5-64.167 43.5-105.5 43.5-76.5-14.5-105.5-43.5-43.5-64.167-43.5-105.5S121.5 158.333 150.5 129 214.667 85 256 85zm0 342c53.333 0 98.666-18.833 135.999-56.5s56-82.834 56-135.501-18.667-97.834-56-135.501-82.666-56.5-135.999-56.5-98.666 18.833-135.999 56.5-56 82.834-56 135.501 18.667 97.834 56 135.501S202.667 427 256 427zm11-86V229l85-50-16-26-101 60v128h32zm-99 99-98-82-27 32 98 82zm301-50-27-33-98 83 27 32z"/><glyph glyph-name="uniE191" unicode="access_alarms" d="M256 85c41.333 0 76.5 14.667 105.5 44S405 193.666 405 234.999s-14.5 76.5-43.5 105.5-64.167 43.5-105.5 43.5-76.5-14.5-105.5-43.5-43.5-64.167-43.5-105.5S121.5 158.333 150.5 129 214.667 85 256 85zm0 342c53.333 0 98.666-18.667 135.999-56s56-82.666 56-135.999-18.667-98.666-56-135.999-82.666-56-135.999-56-98.666 18.667-135.999 56-56 82.666-56 135.999 18.667 98.666 56 135.999S202.667 427 256 427zm11-86V228l85-51-17-26-100 62v128h32zm-98 98-99-81-27 32 98 81zm300-49-27-32-99 84 28 32z"/><glyph glyph-name="uniE192" unicode="access_time" d="M267 363V251l96-57-16-27-112 68v128h32zM256 85c46.667 0 86.834 16.833 120.501 50.5s50.5 73.834 50.5 120.501-16.833 86.834-50.5 120.501-73.834 50.5-120.501 50.5-86.834-16.833-120.501-50.5-50.5-73.834-50.5-120.501 16.833-86.834 50.5-120.501S209.333 85 256 85zm0 384c58.667 0 108.834-20.833 150.501-62.5s62.5-91.834 62.5-150.501-20.833-108.834-62.5-150.501-91.834-62.5-150.501-62.5-108.834 20.833-150.501 62.5-62.5 91.834-62.5 150.501 20.833 108.834 62.5 150.501S197.333 469 256 469z"/><glyph glyph-name="uniE193" unicode="add_alarm" d="M277 320v-64h64v-43h-64v-64h-42v64h-64v43h64v64h42zM256 85c41.333 0 76.5 14.667 105.5 44S405 193.666 405 234.999s-14.5 76.5-43.5 105.5-64.167 43.5-105.5 43.5-76.5-14.5-105.5-43.5-43.5-64.167-43.5-105.5S121.5 158.333 150.5 129 214.667 85 256 85zm0 342c53.333 0 98.666-18.833 135.999-56.5s56-82.834 56-135.501-18.667-97.834-56-135.501-82.666-56.5-135.999-56.5-98.666 18.833-135.999 56.5-56 82.834-56 135.501 18.667 97.834 56 135.501S202.667 427 256 427zm213-37-27-33-98 83 27 32zm-301 50-98-82-27 32 98 82z"/><glyph glyph-name="uniE194" unicode="airplanemode_inactive" d="m64 400 27 27L427 91l-27-27-123 122v-79l43-32V43l-75 21-74-21v32l42 32v117L43 171v42l127 80zm213-80 171-107v-42l-68 21-167 167v78c0 8.667 3.167 16.167 9.5 22.5s13.833 9.5 22.5 9.5 16.167-3.167 22.5-9.5 9.5-13.833 9.5-22.5V320z"/><glyph glyph-name="uniE195" unicode="airplanemode_active" d="m448 171-171 53V107l43-32V43l-75 21-74-21v32l42 32v117L43 171v42l170 107v117c0 8.667 3.167 16.167 9.5 22.5s13.833 9.5 22.5 9.5 16.167-3.167 22.5-9.5 9.5-13.833 9.5-22.5V320l171-107v-42z"/><glyph glyph-name="uniE19C" unicode="battery_alert" d="M277 213v107h-42V213h42zm0-85v43h-42v-43h42zm57 299c8 0 14.833-2.833 20.5-8.5S363 406 363 398V71c0-8-2.833-14.667-8.5-20S342 43 334 43H178c-8 0-14.833 2.667-20.5 8S149 63 149 71v327c0 8 2.833 14.833 8.5 20.5S170 427 178 427h35v42h86v-42h35z"/><glyph glyph-name="uniE1A3" unicode="battery_charging_full" d="m235 85 85 160h-43v118l-85-160h43V85zm99 342c8 0 14.833-2.833 20.5-8.5S363 406 363 398V71c0-8-2.833-14.667-8.5-20S342 43 334 43H178c-8 0-14.833 2.667-20.5 8S149 63 149 71v327c0 8 2.833 14.833 8.5 20.5S170 427 178 427h35v42h86v-42h35z"/><glyph glyph-name="uniE1A4" unicode="battery_full" d="M334 427c8 0 14.833-2.833 20.5-8.5S363 406 363 398V71c0-8-2.833-14.667-8.5-20S342 43 334 43H178c-8 0-14.833 2.667-20.5 8S149 63 149 71v327c0 8 2.833 14.833 8.5 20.5S170 427 178 427h35v42h86v-42h35z"/><glyph glyph-name="uniE1A5" unicode="battery_std" d="M334 427c8 0 14.833-2.833 20.5-8.5S363 406 363 398V71c0-8-2.833-14.667-8.5-20S342 43 334 43H178c-8 0-14.833 2.667-20.5 8S149 63 149 71v327c0 8 2.833 14.833 8.5 20.5S170 427 178 427h35v42h86v-42h35z"/><glyph glyph-name="uniE1A6" unicode="battery_unknown" d="M305 241c10 10 15 21.999 15 35.999 0 17.333-6.333 32.333-19 45s-27.667 19-45 19-32.333-6.333-45-19-19-27.667-19-45h32c0 8.667 3 16.167 9 22.5s13.667 9.5 23 9.5 17-3.167 23-9.5 9-13.833 9-22.5-3-16-9-22l-20-20c-13.333-13.333-20-27.666-20-42.999h34c0 10.667 6 22 18 34zm-29-112.001v41h-40v-41h40zm58 298c8 0 14.833-2.833 20.5-8.5s8.5-12.5 8.5-20.5v-327c0-8-2.833-14.667-8.5-20s-12.5-8-20.5-8H178c-8 0-14.833 2.667-20.5 8s-8.5 12-8.5 20v327c0 8 2.833 14.833 8.5 20.5s12.5 8.5 20.5 8.5h35v42h86v-42h35z"/><glyph glyph-name="uniE1A7" unicode="bluetooth" d="m317 164-40 41v-81zm-40 224v-81l40 41zm101-40-92-92 92-92L256 43h-21v162l-98-98-30 30 119 119-119 119 30 30 98-98v162h21z"/><glyph glyph-name="uniE1A8" unicode="bluetooth_connected" d="m405 299 43-43-43-43-42 43zm-88-135-40 41v-81zm-40 224v-81l40 41zm101-40-92-92 92-92L256 43h-21v162l-98-98-30 30 119 119-119 119 30 30 98-98v162h21zm-229-92-42-43-43 43 43 43z"/><glyph glyph-name="uniE1A9" unicode="bluetooth_disabled" d="m277 124 40 40-40 41v-81zM115 427l312-312-30-30-49 49-92-91h-21v162l-98-98-30 30 119 119L85 397zm162-39v-69l-42 43v107h21l122-121-65-65-30 30 34 35z"/><glyph glyph-name="uniE1AA" unicode="bluetooth_searching" d="m275 164-40 41v-81zm-40 224v-81l40 41zm100-40-92-92 92-92L213 43h-21v162l-98-98-30 30 119 119L64 375l30 30 98-98v162h21zm82 21c20.667-33.333 31-70.332 31-110.999S437 179.667 415 145l-25 25c14 28 21 56.667 21 86s-7 58-21 86zM304 256.001l49 49.001c6.667-16.667 10-33 10-49 0-16.667-3.333-33.334-10-50.001z"/><glyph glyph-name="uniE1AB" unicode="brightness_auto" d="M305 171h41l-69 192h-42l-69-192h41l15 42h68zm122 156 70-71-70-71V85H327l-71-70-71 70H85v100l-70 71 70 71v100h100l71 70 71-70h100V327zm-196-85 25 78 25-78h-50z"/><glyph glyph-name="uniE1AC" unicode="brightness_high" d="M256 341c23.333 0 43.333-8.333 60-25s25-36.667 25-60-8.333-43.333-25-60-36.667-25-60-25-43.333 8.333-60 25-25 36.667-25 60 8.333 43.333 25 60 36.667 25 60 25zm0-213c35.333 0 65.5 12.5 90.5 37.5S384 220.667 384 256s-12.5 65.5-37.5 90.5S291.333 384 256 384s-65.5-12.5-90.5-37.5S128 291.333 128 256s12.5-65.5 37.5-90.5S220.667 128 256 128zm171 199 70-71-70-71V85H327l-71-70-71 70H85v100l-70 71 70 71v100h100l71 70 71-70h100V327z"/><glyph glyph-name="uniE1AD" unicode="brightness_low" d="M256 128c35.333 0 65.5 12.5 90.5 37.5S384 220.667 384 256s-12.5 65.5-37.5 90.5S291.333 384 256 384s-65.5-12.5-90.5-37.5S128 291.333 128 256s12.5-65.5 37.5-90.5S220.667 128 256 128zm171 57V85H327l-71-70-71 70H85v100l-70 71 70 71v100h100l71 70 71-70h100V327l70-71z"/><glyph glyph-name="uniE1AE" unicode="brightness_medium" d="M256 128c35.333 0 65.5 12.5 90.5 37.5S384 220.667 384 256s-12.5 65.5-37.5 90.5S291.333 384 256 384V128zm171 57V85H327l-71-70-71 70H85v100l-70 71 70 71v100h100l71 70 71-70h100V327l70-71z"/><glyph glyph-name="uniE1AF" unicode="data_usage" d="M256 107c48 0 86.668 18.668 116.001 56.001l56-33c-42.667-58-100-87-172-87-58.667 0-108.834 20.833-150.501 62.5S43 197.335 43 256.002c0 55.333 18.5 103.166 55.5 143.499S181 462.667 235 468v-64c-36-5.333-66.333-22-91-50s-37-60.667-37-98c0-41.333 14.5-76.5 43.5-105.5S214.667 107 256 107zm21.001 361.001c54-5.333 99.5-28.168 136.5-68.501s55.5-88.166 55.5-143.499c0-32-6-61-18-87l-56 33c6.667 18.667 10 36.667 10 54 0 37.333-12.333 70-37 98s-55 44.667-91 50v64z"/><glyph glyph-name="uniE1B0" unicode="developer_mode" d="m363 107-.002 42h42V64c0-11.333-4.167-21.333-12.5-30s-18.166-13-29.499-13h-214c-11.333 0-21.166 4.333-29.499 13S107 52.667 107 64v85h42v-42h214zm-150.002 81-30-30-98 98 98 98 30-30-67-68zm116-30-30 30 67 68-67 68 30 30 98-98zm-180 247 .002-42.001h-42v85c0 11.333 4.167 21.333 12.5 30s18.166 13 29.499 13l214-1c11.333 0 21.166-4.167 29.499-12.5s12.5-18.166 12.5-29.499v-85h-42v42h-214z"/><glyph glyph-name="uniE1B1" unicode="devices" d="M469 149v150h-85V149h85zm22 192c6 0 11-2 15-6s6-9 6-15V107c0-6-2-11.167-6-15.5s-9-6.5-15-6.5H363c-6 0-11.167 2.167-15.5 6.5S341 101 341 107v213c0 6 2.167 11 6.5 15s9.5 6 15.5 6h128zM85 384l.001-235h214V85h-299v64h43v235c0 11.333 4.167 21.333 12.5 30S73.667 427 85 427h384v-43H85z"/><glyph glyph-name="uniE1B2" unicode="dvr" d="M149 256v-43h-42v43h42zm0 85v-42h-42v42h42zm256-85v-43H171v43h234zm0 85v-42H171v42h234zm43-192v256H64V149h384zm0 299c11.333 0 21.332-4.333 29.999-13s13-18.667 13-30l-1-256c0-11.333-4.167-21.166-12.5-29.499s-18.166-12.5-29.499-12.5H341v-43H171v43H64c-11.333 0-21.333 4.167-30 12.5S21 137.667 21 149v256c0 11.333 4.333 21.333 13 30s18.667 13 30 13h384z"/><glyph glyph-name="uniE1B3" unicode="gps_fixed" d="M256 107c41.333 0 76.5 14.5 105.5 43.5S405 214.667 405 256s-14.5 76.5-43.5 105.5S297.333 405 256 405s-76.5-14.5-105.5-43.5S107 297.333 107 256s14.5-76.5 43.5-105.5S214.667 107 256 107zm191 170h44v-42h-44c-4.667-44.667-23-83-55-115s-70.333-50.333-115-55V21h-42v44c-44.667 4.667-83 23-115 55s-50.333 70.333-55 115H21v42h44c4.667 44.667 23 83 55 115s70.333 50.333 115 55v44h42v-44c44.667-4.667 83-23 115-55s50.333-70.333 55-115zm-191 64c23.333 0 43.333-8.333 60-25s25-36.667 25-60-8.333-43.333-25-60-36.667-25-60-25-43.333 8.333-60 25-25 36.667-25 60 8.333 43.333 25 60 36.667 25 60 25z"/><glyph glyph-name="uniE1B4" unicode="gps_not_fixed" d="M256 107c41.333 0 76.5 14.5 105.5 43.5S405 214.667 405 256s-14.5 76.5-43.5 105.5S297.333 405 256 405s-76.5-14.5-105.5-43.5S107 297.333 107 256s14.5-76.5 43.5-105.5S214.667 107 256 107zm191 170h44v-42h-44c-4.667-44.667-23-83-55-115s-70.333-50.333-115-55V21h-42v44c-44.667 4.667-83 23-115 55s-50.333 70.333-55 115H21v42h44c4.667 44.667 23 83 55 115s70.333 50.333 115 55v44h42v-44c44.667-4.667 83-23 115-55s50.333-70.333 55-115z"/><glyph glyph-name="uniE1B5" unicode="gps_off" d="M347 138 138.001 346.999c-20.667-27.333-31-57.666-31-90.999 0-41.333 14.5-76.5 43.5-105.5s64.167-43.5 105.5-43.5c33.333 0 63.666 10.333 90.999 31zM64.001 420.999l27 27 357-357-27-27-44 44c-30-24.667-63.333-39-100-43v-44h-42v44c-44.667 4.667-83 23-115 55s-50.333 70.333-55 115h-44v42h44c4 36.667 18.333 70 43 100zm383-144H491v-42h-44c-3.333-26-10.333-48.667-21-68l-32 32c7.333 18 11 37 11 57 0 41.333-14.5 76.5-43.5 105.5s-64.167 43.5-105.5 43.5c-20 0-39-3.667-57-11l-32 32c20.667 10.667 43.334 17.667 68.001 21v44h42v-44c44.667-4.667 83-23 115-55s50.333-70.333 55-115z"/><glyph glyph-name="uniE1B6" unicode="location_disabled" d="M347 138 138.001 346.999c-20.667-27.333-31-57.666-31-90.999 0-41.333 14.5-76.5 43.5-105.5s64.167-43.5 105.5-43.5c33.333 0 63.666 10.333 90.999 31zM64.001 420.999l27 27 357-357-27-27-44 44c-30-24.667-63.333-39-100-43v-44h-42v44c-44.667 4.667-83 23-115 55s-50.333 70.333-55 115h-44v42h44c4 36.667 18.333 70 43 100zm383-144H491v-42h-44c-3.333-26-10.333-48.667-21-68l-32 32c7.333 18 11 37 11 57 0 41.333-14.5 76.5-43.5 105.5s-64.167 43.5-105.5 43.5c-20 0-39-3.667-57-11l-32 32c20.667 10.667 43.334 17.667 68.001 21v44h42v-44c44.667-4.667 83-23 115-55s50.333-70.333 55-115z"/><glyph glyph-name="uniE1B7" unicode="location_searching" d="M256 107c41.333 0 76.5 14.5 105.5 43.5S405 214.667 405 256s-14.5 76.5-43.5 105.5S297.333 405 256 405s-76.5-14.5-105.5-43.5S107 297.333 107 256s14.5-76.5 43.5-105.5S214.667 107 256 107zm191 170h44v-42h-44c-4.667-44.667-23-83-55-115s-70.333-50.333-115-55V21h-42v44c-44.667 4.667-83 23-115 55s-50.333 70.333-55 115H21v42h44c4.667 44.667 23 83 55 115s70.333 50.333 115 55v44h42v-44c44.667-4.667 83-23 115-55s50.333-70.333 55-115z"/><glyph glyph-name="uniE1B8" unicode="graphic_eq" d="M405 299h43v-86h-43v86zm-85-171v256h43V128h-43zM64 213v86h43v-86H64zM235 43v426h42V43h-42zm-86 85v256h43V128h-43z"/><glyph glyph-name="uniE1B9" unicode="network_cell" d="M469 43H43l426 426V43z"/><glyph glyph-name="uniE1BA" unicode="network_wifi" d="m436 279 .998-1-181-224-181 224 1 1-68 84c80.667 56.667 163.334 85 248.001 85S423.333 419.667 504 363z"/><glyph glyph-name="uniE1BB" unicode="nfc" d="m384 384 .001-256h-256v256h85v-43h-42V171h170v170h-64v-48c14.667-8 22-20.333 22-37 0-11.333-4.333-21.333-13-30s-18.667-13-30-13-21.333 4.333-30 13-13 18.667-13 30c0 16.667 7.333 29 22 37v48c0 11.333 4.167 21.333 12.5 30s18.166 13 29.499 13h107zm43.001-299v342h-342V85h342zm0 384c11.333 0 21.166-4.167 29.499-12.5s12.5-18.166 12.5-29.499v-342c0-11.333-4.167-21.166-12.5-29.499s-18.166-12.5-29.499-12.5h-342c-11.333 0-21.166 4.167-29.499 12.5s-12.5 18.166-12.5 29.499v342c0 11.333 4.167 21.166 12.5 29.499S73.668 469 85.001 469h342z"/><glyph glyph-name="uniE1BC" unicode="now_wallpaper" d="m85 235-.001-149.999h150v-42h-150c-11.333 0-21.166 4.167-29.499 12.5S43 73.667 43 85v150h42zM426.999 85.001 426.998 235h42V85c0-11.333-4.167-21.166-12.5-29.499s-18.166-12.5-29.499-12.5h-150v42h150zM426.998 469c11.333 0 21.167-4.168 29.5-12.501s12.5-18.166 12.5-29.499V277h-42v150h-150v42h150zm-63.999-138.001c0-8.667-3.167-16.167-9.5-22.5s-13.833-9.5-22.5-9.5-16.167 3.167-22.5 9.5-9.5 13.833-9.5 22.5 3.167 16.167 9.5 22.5 13.833 9.5 22.5 9.5 16.167-3.167 22.5-9.5 9.5-13.833 9.5-22.5zm-150-96 64-79 43 57 64-85h-256zm-128 192L85 277H43v150c0 11.333 4.167 21.166 12.5 29.499s18.166 12.5 29.499 12.5h150v-42h-150z"/><glyph glyph-name="uniE1BD" unicode="now_widgets" d="m355 476 121-121-121-120h93V64H277v171h78L235 355v-78H64v171h171v-93zM64 64v171h171V64H64z"/><glyph glyph-name="uniE1BE" unicode="screen_lock_landscape" d="M230 299v-22h52v22c0 6.667-2.5 12.5-7.5 17.5S263.333 324 256 324s-13.5-2.5-18.5-7.5-7.5-10.833-7.5-17.5zm-17-128c-6 0-11 2.001-15 6.001s-6 9-6 15v64c0 6 2 11 6 15s9 6 15 6v22c0 11.333 4.167 21.166 12.5 29.499S244 341 256 341s22.167-4 30.5-12 12.5-18 12.5-30v-22c6 0 11-2 15-6s6-9 6-15v-64c0-6-2-11-6-15s-9-6-15-6h-86zm192-21.999v214H107v-214h298zm43 256c11.333 0 21.333-4.167 30-12.5s13-18.166 13-29.499v-214c0-11.333-4.333-21.166-13-29.499s-18.667-12.5-30-12.5H64c-11.333 0-21.333 4.167-30 12.5s-13 18.166-13 29.499v214c0 11.333 4.333 21.166 13 29.499s18.667 12.5 30 12.5h384z"/><glyph glyph-name="uniE1BF" unicode="screen_lock_portrait" d="M363 107v298H149V107h214zm0 384c11.333 0 21.166-4.333 29.499-13s12.5-18.667 12.5-30V64c0-11.333-4.167-21.333-12.5-30S374.333 21 363 21H149c-11.333 0-21.166 4.333-29.499 13s-12.5 18.667-12.5 30v384c0 11.333 4.167 21.333 12.5 30s18.166 13 29.499 13h214zM230 299v-22h52v22c0 6.667-2.5 12.5-7.5 17.5S263.333 324 256 324s-13.5-2.5-18.5-7.5-7.5-10.833-7.5-17.5zm-17-128c-6 0-11 2.001-15 6.001s-6 9-6 15v64c0 6 2 11 6 15s9 6 15 6v22c0 11.333 4.167 21.166 12.5 29.499S244 341 256 341s22.167-4 30.5-12 12.5-18 12.5-30v-22c6 0 11-2 15-6s6-9 6-15v-64c0-6-2-11-6-15s-9-6-15-6h-86z"/><glyph glyph-name="uniE1C0" unicode="screen_lock_rotation" d="M358 459v-11h73v11c0 10-3.5 18.5-10.5 25.5S405 495 395 495s-18.667-3.5-26-10.5-11-15.5-11-25.5zm-17-139c-6 0-11.001 2-15.001 6s-6 9-6 15v86c0 6 2 11 6 15s9 6 15 6v11c0 14.667 5.333 27.167 16 37.5S380.333 512 395 512s27.167-5.167 37.5-15.5S448 473.667 448 459v-11c6 0 11-2 15-6s6-9 6-15v-86c0-6-2-11-6-15s-9-6-15-6H341zM180.999 75l28 27.999 81-81-14-1c-66.667 0-124.5 22.667-173.5 68s-76.167 101-81.5 167h32c4-39.333 17.5-75.166 40.5-107.499s52.167-56.833 87.5-73.5zm315 164.999c6.667-6 10.001-13.501 10.001-22.501s-3.333-16.833-10-23.5l-136-135c-6-6.667-13.333-10-22-10s-16.334 3.333-23.001 10l-256 256c-6.667 6-10 13.333-10 22s3.333 16.334 10 23.001l135 136c6 6.667 13.5 10 22.5 10s16.833-3.333 23.5-10l52-52-30-30-45 44-121-120 242-242 120 121-47 47 30 30z"/><glyph glyph-name="uniE1C1" unicode="screen_rotation" d="m160 54 29 28 81-81-14-1C189.333 0 131.5 22.667 82.5 68S6.333 169 1 235h32c4-40 17.333-76 40-108s51.667-56.333 87-73zm156 6 136 136-256 256L60 316zm-98 415 257-257c6.667-6 10-13.333 10-22s-3.333-16.334-10-23.001l-136-136c-6-6.667-13.333-10-22-10s-16.334 3.333-23.001 10l-257 257c-6.667 6-10 13.333-10 22s3.333 16.334 10 23.001l136 136c6 6.667 13.333 10 22 10s16.334-3.333 23.001-10zm134-17-29-28-81 81 14 1c66.667 0 124.5-22.667 173.5-68s76.167-101 81.5-167h-32c-4 40-17.333 76-40 108s-51.667 56.333-87 73z"/><glyph glyph-name="uniE1C2" unicode="sd_storage" d="M384 341v86h-43v-86h43zm-64 0v86h-43v-86h43zm-64 0v86h-43v-86h43zm128 128c11.333 0 21.333-4.168 30-12.501s13-18.166 13-29.499V85c0-11.333-4.333-21.166-13-29.499s-18.667-12.5-30-12.5H128c-11.333 0-21.333 4.167-30 12.5S85 73.667 85 85l1 256 127 128h171z"/><glyph glyph-name="uniE1C3" unicode="settings_system_daydream" d="M448 106v300H64V106h384zm0 342c11.333 0 21.333-4.333 30-13s13-18.667 13-30V107c0-11.333-4.333-21.333-13-30s-18.667-13-30-13H64c-11.333 0-21.333 4.333-30 13s-13 18.667-13 30v298c0 11.333 4.333 21.333 13 30s18.667 13 30 13h384zM192 171c-17.333 0-32.333 6.333-45 19s-19 27.667-19 45c0 16.667 5.5 31 16.5 43s24.5 18.667 40.5 20h4c14 28.667 36.333 43 67 43 18.667 0 35-6.167 49-18.5s22.333-27.5 25-45.5h1c14.667 0 27.167-5.167 37.5-15.5S384 238.667 384 224s-5.167-27.167-15.5-37.5S345.667 171 331 171H192z"/><glyph glyph-name="uniE1C8" unicode="signal_cellular_4_bar" d="m43 43 426 426V43H43z"/><glyph glyph-name="uniE1CD" unicode="signal_cellular_connected_no_internet_4_bar" d="m43 43 426 426V341h-85V43H43zm384 0v42h42V43h-42zm0 85v171h42V128h-42z"/><glyph glyph-name="uniE1CE" unicode="signal_cellular_no_sim" d="M78 429 450.999 57l-28-28-40 41c-8-4-14.667-6-20-6h-214c-11.333 0-21.166 4.333-29.499 13S107 95.667 107 107v239l-56 56zm326.999-24L405 156 163 398l50 50h150c11.333 0 21.166-4.333 29.499-13s12.5-18.667 12.5-30z"/><glyph glyph-name="uniE1CF" unicode="signal_cellular_null" d="M469 469V43H43zm-42-103L146 85h281v281z"/><glyph glyph-name="uniE1D0" unicode="signal_cellular_off" d="M102 416 469 48l-27-27-42 43H21l189 189L75 389zm346 75V124L265 307z"/><glyph glyph-name="uniE1D8" unicode="signal_wifi_4_bar" d="M256 54 7.998 363c80.667 56.667 163.334 85 248.001 85S423.333 419.667 504 363z"/><glyph glyph-name="uniE1D9" unicode="signal_wifi_4_bar_lock" d="m331 203 .004-56-75-94-247 310 6 5 12.5 8.5c4.333 3 10.166 6.833 17.499 11.5s15.166 9 23.499 13l28.5 13.5c10.667 5 22 9.333 34 13s24.5 7.167 37.5 10.5 27 5.833 42 7.5 30.167 2.5 45.5 2.5 30.5-.833 45.5-2.5 29-4.167 42-7.5 25.5-6.833 37.5-10.5 23.333-8 34-13l28.5-13.5c8.333-4 16.166-8.333 23.499-13s13.166-8.5 17.499-11.5L497 368l6-5-44-56c-4 1.333-11.333 2-22 2-30 0-55.167-10.167-75.5-30.5S331 233 331 203zm138.004-32v32c0 8.667-3.167 16.167-9.5 22.5s-13.833 9.5-22.5 9.5-16.167-3.167-22.5-9.5-9.5-13.833-9.5-22.5v-32h64zm22 0c5.333 0 10.167-2.333 14.5-7s6.5-9.667 6.5-15V64c0-5.333-2.167-10.166-6.5-14.499s-9.166-6.5-14.499-6.5h-107c-5.333 0-10.166 2.167-14.499 6.5s-6.5 9.166-6.5 14.499v85c0 5.333 2.167 10.333 6.5 15s9.166 7 14.499 7v32c0 15.333 5 28 15 38s22.667 15 38 15 28.166-5.167 38.499-15.5 15.5-22.833 15.5-37.5v-32z"/><glyph glyph-name="uniE1DA" unicode="signal_wifi_off" d="m70 481 153.5-153L437 113l-27-27-71 71-83-103L8 363c22 18 48 33.667 78 47l-43 44zm434-118L387.999 218l-221 220c30 6.667 59.667 10 89 10 84.667 0 167.334-28.333 248.001-85z"/><glyph glyph-name="uniE1DB" unicode="storage" d="M85 277v-42h43v42H85zm-42-64v86h426v-86H43zm85 150v42H85v-42h43zm-85 64h426v-86H43v86zm42-278v-42h43v42H85zM43 85v86h426V85H43z"/><glyph glyph-name="uniE1E0" unicode="usb" d="m320 363 85 .001v-86h-21v-42c0-12-4.167-22.167-12.5-30.5s-18.5-12.5-30.5-12.5h-64v-65c17.333-9.333 26-23.333 26-42 0-12.667-4.5-23.667-13.5-33s-20.167-14-33.5-14-24.5 4.667-33.5 14-13.5 20.333-13.5 33c0 18.667 8.667 32.667 26 42v65h-64c-12 0-22.167 4.167-30.5 12.5s-12.5 18.5-12.5 30.5v44c-17.333 9.333-26 23-26 41 0 13.333 4.667 24.5 14 33.5s20.333 13.5 33 13.5 23.667-4.5 33-13.5 14-20.167 14-33.5c0-18.667-8.333-32.334-25-41.001v-44h64v170h-43l64 86 64-86h-43V235h64v42h-21v86z"/><glyph glyph-name="uniE1E1" unicode="wifi_lock" d="M469 171v32c0 8.667-3.167 16.167-9.5 22.5S445.667 235 437 235s-16.167-3.167-22.5-9.5-9.5-13.833-9.5-22.5v-32h64zm22 0c6 0 10.999-2.167 14.999-6.5s6-9.5 6-15.5V64c0-6-2-11-6-15s-9-6-15-6h-107c-6 0-11 2-15 6s-6 9-6 15v85c0 6 2 11.167 6 15.5s9 6.5 15 6.5v32c0 14.667 5.167 27.167 15.5 37.5s22.833 15.5 37.5 15.5 27.334-5.167 38.001-15.5 16-22.833 16-37.5v-32zm-54.001 138c-29.333 0-54.333-10.333-75-31s-31-45.667-31-75v-61l-75-99-256 341c74.667 56.667 160 85 256 85s181.333-28.333 256-85l-57-76c-4 .667-10 1-18 1z"/><glyph glyph-name="uniE1E2" unicode="wifi_tethering" d="M256 448c58.667 0 108.83-20.666 150.497-61.999s62.5-91.666 62.5-150.999c0-38.667-9.5-74.5-28.5-107.5s-44.833-58.833-77.5-77.5l-22 37c26 15.333 46.833 36.166 62.5 62.499s23.5 54.833 23.5 85.5c0 46.667-16.667 86.667-50 120s-73.666 50-120.999 50-87.666-16.667-120.999-50-50-73.333-50-120c0-31.333 7.667-60 23-86s36-46.667 62-62l-21-37c-32.667 18.667-58.5 44.5-77.5 77.5s-28.5 68.833-28.5 107.5c0 59.333 20.833 109.666 62.5 150.999S197.333 448 256 448zm127.996-212.999c0-23.333-5.833-44.833-17.5-64.5s-27.167-35.167-46.5-46.5l-21 37c28 16.667 42 41.334 42 74.001 0 23.333-8.333 43.333-25 60s-36.667 25-60 25-43.333-8.333-60-25-25-36.667-25-60c0-32.667 14-57.334 42-74.001l-21-37c-19.333 11.333-34.833 26.833-46.5 46.5s-17.5 41.167-17.5 64.5c0 35.333 12.5 65.5 37.5 90.5s55.167 37.5 90.5 37.5 65.5-12.5 90.5-37.5 37.5-55.167 37.5-90.5zm-128 42c11.333 0 21.333-4.167 30-12.5s13-18.166 13-29.499-4.333-21.333-13-30-18.667-13-30-13-21.333 4.333-30 13-13 18.667-13 30 4.333 21.166 13 29.499 18.667 12.5 30 12.5z"/><glyph glyph-name="uniE226" unicode="attach_file" d="M352 384h32.003V139c0-32.667-11.333-60.5-34-83.5S299.669 21 267.002 21s-60.5 11.5-83.5 34.5-34.5 50.833-34.5 83.5v266c0 23.333 8.5 43.5 25.5 60.5s37.167 25.5 60.5 25.5 43.333-8.5 60-25.5 25-37.167 25-60.5V181c0-14.667-5.167-27.167-15.5-37.5s-22.833-15.5-37.5-15.5-27.334 5.167-38.001 15.5-16 22.833-16 37.5v203h32V181c0-6 2.167-11 6.5-15s9.5-6 15.5-6 11 2 15 6 6 9 6 15v224c0 14.667-5.167 27.334-15.5 38.001s-22.833 16-37.5 16-27.334-5.333-38.001-16-16-23.334-16-38.001V139c0-23.333 8.5-43.5 25.5-60.5S243.667 53 267 53s43.333 8.5 60 25.5 25 37.167 25 60.5v245z"/><glyph glyph-name="uniE227" unicode="attach_money" d="M252 279c14.667-4 26.83-8 36.496-12s19.834-9.5 30.501-16.5 18.834-15.833 24.501-26.5 8.5-23.334 8.5-38.001c0-20.667-6.833-37.5-20.5-50.5s-31.834-21.5-54.5-25.5v-46h-64v46c-22 4.667-40.168 14-54.5 28s-22.167 32-23.5 54h47c2.667-30 23.667-45 63-45 20.667 0 35.5 3.833 44.5 11.5s13.5 16.5 13.5 26.5c0 24-21.333 41.333-64 52-66.667 15.333-100 44.666-100 87.999 0 19.333 7 35.833 21 49.5s31.667 22.834 53 27.501v46h64v-47c22-5.333 38.833-15.333 50.5-30s17.834-31.667 18.501-51h-47c-1.333 30-19.333 45-54 45-17.333 0-31.166-3.667-41.499-11s-15.5-17-15.5-29c0-19.333 21.333-34.666 64-45.999z"/><glyph glyph-name="uniE228" unicode="border_all" d="M405 277v128H277V277h128zm0-170v128H277V107h128zM235 277v128H107V277h128zm0-170v128H107V107h128zM64 448h384V64H64v384z"/><glyph glyph-name="uniE229" unicode="border_bottom" d="M107 192v-43H64v43h43zM64 64v43h384V64H64zm43 213v-42H64v42h43zm298 43v43h43v-43h-43zm0 128h43v-43h-43v43zm-298-85v-43H64v43h43zm298-214v43h43v-43h-43zm0 86v42h43v-42h-43zm-42 213v-43h-43v43h43zm-86 0v-43h-42v43h42zm86-171v-42h-43v42h43zm-86 86v-43h-42v43h42zm-170 85v-43H64v43h43zm170-171v-42h-42v42h42zm-85 171v-43h-43v43h43zm85-256v-43h-42v43h42zm-85 85v-42h-43v42h43z"/><glyph glyph-name="uniE22A" unicode="border_clear" d="M320 405v43h43v-43h-43zm0-170v42h43v-42h-43zm0-171v43h43V64h-43zm-85 341v43h42v-43h-42zm170 43h43v-43h-43v43zM235 320v43h42v-43h-42zm170 0v43h43v-43h-43zm0-256v43h43V64h-43zm0 171v42h43v-42h-43zm0-86v43h43v-43h-43zm-170 86v42h42v-42h-42zM64 405v43h43v-43H64zm0-85v43h43v-43H64zm0-85v42h43v-42H64zm0-86v43h43v-43H64zm0-85v43h43V64H64zm171 0v43h42V64h-42zm0 85v43h42v-43h-42zm-86-85v43h43V64h-43zm0 171v42h43v-42h-43zm0 170v43h43v-43h-43z"/><glyph glyph-name="uniE22B" unicode="border_color" d="M0 85h512V0H0v85zm442 341-42-42-80 80 42 42c4 4 9 6 15 6s11-2 15-6l50-50c4-4 6-9 6-15s-2-11-6-15zm-63-63L165 149H85v80l214 214z"/><glyph glyph-name="uniE22C" unicode="border_horizontal" d="M405 64v43h43V64h-43zm-85 0v43h43V64h-43zm-85 85v43h42v-43h-42zm170 171v43h43v-43h-43zm0 128h43v-43h-43v43zM64 235v42h384v-42H64zM235 64v43h42V64h-42zm170 85v43h43v-43h-43zM277 448v-43h-42v43h42zm0-85v-43h-42v43h42zm86 85v-43h-43v43h43zm-171 0v-43h-43v43h43zm-85 0v-43H64v43h43zm42-384v43h43V64h-43zm-85 85v43h43v-43H64zm43 214v-43H64v43h43zM64 64v43h43V64H64z"/><glyph glyph-name="uniE22D" unicode="border_inner" d="M405 149v43h43v-43h-43zm0-85v43h43V64h-43zM277 448V277h171v-42H277V64h-42v171H64v42h171v171h42zm43-384v43h43V64h-43zm85 384h43v-43h-43v43zm0-128v43h43v-43h-43zm-42 128v-43h-43v43h43zm-256 0v-43H64v43h43zm85 0v-43h-43v43h43zM64 149v43h43v-43H64zm43 214v-43H64v43h43zm42-299v43h43V64h-43zm-85 0v43h43V64H64z"/><glyph glyph-name="uniE22E" unicode="border_left" d="M320 405v43h43v-43h-43zm0-170v42h43v-42h-43zm85-171v43h43V64h-43zm0 171v42h43v-42h-43zm0 213h43v-43h-43v43zm0-299v43h43v-43h-43zm-85-85v43h43V64h-43zm85 256v43h43v-43h-43zM64 64v384h43V64H64zm85 171v42h43v-42h-43zm0 170v43h43v-43h-43zm0-341v43h43V64h-43zm86 171v42h42v-42h-42zm0 85v43h42v-43h-42zm0 85v43h42v-43h-42zm0-256v43h42v-43h-42zm0-85v43h42V64h-42z"/><glyph glyph-name="uniE22F" unicode="border_outer" d="M192 277v-42h-43v42h43zm85-85v-43h-42v43h42zm128-85v298H107V107h298zM64 448h384V64H64v384zm299-171v-42h-43v42h43zm-86 0v-42h-42v42h42zm0 86v-43h-42v43h42z"/><glyph glyph-name="uniE230" unicode="border_right" d="M235 320v43h42v-43h-42zm0 85v43h42v-43h-42zm0-170v42h42v-42h-42zm85 170v43h43v-43h-43zm0-341v43h43V64h-43zm85 384h43V64h-43v384zm-85-213v42h43v-42h-43zm-85-86v43h42v-43h-42zM64 320v43h43v-43H64zm0-171v43h43v-43H64zm0 86v42h43v-42H64zM235 64v43h42V64h-42zM64 64v43h43V64H64zm85 171v42h43v-42h-43zm0 170v43h43v-43h-43zm-85 0v43h43v-43H64zm85-341v43h43V64h-43z"/><glyph glyph-name="uniE231" unicode="border_style" d="M405 320v43h43v-43h-43zM64 448h384v-43H107V64H64v384zm341-213v42h43v-42h-43zm0-86v43h43v-43h-43zM235 64v43h42V64h-42zm-86 0v43h43V64h-43zm256 0v43h43V64h-43zm-85 0v43h43V64h-43z"/><glyph glyph-name="uniE232" unicode="border_top" d="M320 235v42h43v-42h-43zm85-171v43h43V64h-43zM235 320v43h42v-43h-42zm85-256v43h43V64h-43zm85 85v43h43v-43h-43zM64 448h384v-43H64v43zm341-213v42h43v-42h-43zm0 85v43h43v-43h-43zM235 149v43h42v-43h-42zM64 320v43h43v-43H64zm0-85v42h43v-42H64zm0-171v43h43V64H64zm0 85v43h43v-43H64zm171-85v43h42V64h-42zm0 171v42h42v-42h-42zm-86 0v42h43v-42h-43zm0-171v43h43V64h-43z"/><glyph glyph-name="uniE233" unicode="border_vertical" d="M320 235v42h43v-42h-43zm0-171v43h43V64h-43zm0 341v43h43v-43h-43zm85-85v43h43v-43h-43zm0 128h43v-43h-43v43zm0-213v42h43v-42h-43zm0-171v43h43V64h-43zm-170 0v384h42V64h-42zm170 85v43h43v-43h-43zM149 405v43h43v-43h-43zM64 149v43h43v-43H64zm0-85v43h43V64H64zm0 171v42h43v-42H64zm85 0v42h43v-42h-43zm0-171v43h43V64h-43zM64 405v43h43v-43H64zm0-85v43h43v-43H64z"/><glyph glyph-name="uniE234" unicode="format_align_center" d="M64 448h384v-43H64v43zm85-85h214v-43H149v43zM64 235v42h384v-42H64zm0-171v43h384V64H64zm85 128h214v-43H149v43z"/><glyph glyph-name="uniE235" unicode="format_align_justify" d="M64 448h384v-43H64v43zm0-128v43h384v-43H64zm0-85v42h384v-42H64zm0-86v43h384v-43H64zm0-85v43h384V64H64z"/><glyph glyph-name="uniE236" unicode="format_align_left" d="M64 448h384v-43H64v43zm0-384v43h384V64H64zm0 171v42h384v-42H64zm256 128v-43H64v43h256zm0-171v-43H64v43h256z"/><glyph glyph-name="uniE237" unicode="format_align_right" d="M64 448h384v-43H64v43zm128-128v43h256v-43H192zM64 235v42h384v-42H64zm128-86v43h256v-43H192zM64 64v43h384V64H64z"/><glyph glyph-name="uniE238" unicode="format_bold" d="M288 181c9.333 0 17 3.167 23 9.5s9 13.833 9 22.5-3 16.167-9 22.5-13.667 9.5-23 9.5h-75v-64h75zm-75 192v-64h64c8.667 0 16.167 3.167 22.5 9.5s9.5 13.833 9.5 22.5-3.167 16.167-9.5 22.5-13.833 9.5-22.5 9.5h-64zm120-91c30.667-14 46-38.332 46-72.999 0-22.667-7.5-41.834-22.5-57.501S322.667 128 300 128H149v299h134c24 0 44.167-8.333 60.5-25s24.5-37 24.5-61-11.667-43.667-35-59z"/><glyph glyph-name="uniE239" unicode="format_clear" d="M128 405h299v-64H303l-34-80-45 44 15 36h-51l-60 60v4zm-58 0 6-5L384 91l-27-27-121 121-33-78h-64l52 123L43 378z"/><glyph glyph-name="uniE23A" unicode="format_color_fill" d="M0 85h512V0H0v85zm405 182c28.667-31.333 42.999-56.333 42.999-75 0-11.333-4.333-21.333-13-30s-18.667-13-30-13-21.166 4.333-29.499 13-12.5 18.667-12.5 30c0 8 3.5 18.333 10.5 31s13.833 23 20.5 31zm-294.001 32h205l-103 102zm242 22c6.667-6.667 10.001-14.334 10.001-23.001s-3.333-16-10-22l-117-117c-6.667-6.667-14.334-10-23.001-10-8 0-15.333 3.333-22 10l-118 117c-6.667 6-10 13.333-10 22s3.333 16.334 10 23.001l110 110-51 51 31 30z"/><glyph glyph-name="uniE23B" unicode="format_color_reset" d="M112 400 424 88l-27-27-57 56c-24.667-21.333-52.667-32-84-32-35.333 0-65.5 12.5-90.5 37.5S128 177.667 128 213c0 22.667 9.333 52 28 88l-71 71zm272-187c0-10-.999-19.333-2.999-28l-183 184 58 75c9.333-10.667 21.166-25 35.499-43s33.333-47.5 57-88.5S384 238.333 384 213z"/><glyph glyph-name="uniE23C" unicode="format_color_text" d="M205 256h102l-51 135zm30 192h42l117-299h-48l-23 64H189l-24-64h-48zM0 85h512V0H0v85z"/><glyph glyph-name="uniE23D" unicode="format_indent_decrease" d="M235 235v42h213v-42H235zm0 85v43h213v-43H235zM64 448h384v-43H64v43zm0-384v43h384V64H64zm0 192 85 85V171zm171-107v43h213v-43H235z"/><glyph glyph-name="uniE23E" unicode="format_indent_increase" d="M235 235v42h213v-42H235zm0 85v43h213v-43H235zM64 448h384v-43H64v43zm171-299v43h213v-43H235zM64 341l85-85-85-85v170zm0-277v43h384V64H64z"/><glyph glyph-name="uniE23F" unicode="format_italic" d="M213 427h171v-64h-60l-72-171h47v-64H128v64h60l72 171h-47v64z"/><glyph glyph-name="uniE240" unicode="format_line_spacing" d="M213 235v42h256v-42H213zm0-128v42h256v-42H213zm0 298h256v-42H213v42zm-85-42V149h53l-74-74-75 74h53v214H32l75 74 74-74h-53z"/></font>
</defs>
</svg>
