<svg version="1.0" xmlns="http://www.w3.org/2000/svg" width="933.333" height="933.333" viewBox="0 0 700 700"><path d="M327.8.5c-.1.1-4.2.5-8.9.9s-9.5.8-10.5 1c-1 .2-4.6.7-7.9 1.2-3.3.4-6.2.8-6.5.9-.3 0-2.7.4-5.5.9-8.7 1.3-32.6 7.3-44.5 11.1C159.1 43.8 87.9 102 44.6 179.4 29.3 206.8 16.8 238 10.4 265c-5 21.4-7.2 34.5-9.1 55-1.6 16.5-.9 57 1.2 71.4.3 1.7.7 4.9.9 7.1 1 8.3 1.8 13.1 2.6 16.5.5 1.9 1.2 4.8 1.4 6.5 5.3 29.4 19.6 67.7 37.4 99.4 12.1 21.7 34.2 52.4 46.6 64.7 1.2 1.1 3.5 3.6 5.2 5.5 3.1 3.5 16.3 16.2 24.4 23.4 11.5 10.4 37 28.6 54 38.5 24.6 14.4 63.1 30.2 86.5 35.6.6.1 4.8 1.1 9.5 2.2 10.8 2.6 20 4.4 29.9 5.8 2.5.3 5.7.8 7.1 1 16.3 2.5 68.2 2.5 84.2-.1 1.3-.2 4.6-.7 7.3-1 7.4-1.1 8.7-1.3 12-1.9 1.7-.4 4.6-.9 6.5-1.2 13.2-2.1 51.8-13.7 65-19.6 3-1.4 7.5-3.3 10-4.4 16.6-7 42.8-22.1 60.5-34.8 52.9-38 94.4-90 119.6-150.4 7-16.7 15.4-43 18.5-57.7 1.6-7.5 5.4-30 6-35 .4-3.3.9-7.6 1.1-9.5.8-7 1-51.7.3-59.5-1.5-15.9-2.1-21-2.5-22.5-.2-.8-.7-3.5-1-6-.8-6-4-21.3-7-33-8.6-33.9-24.2-68.9-45-101.5-4.2-6.5-19-26.9-22.9-31.3-1.3-1.5-4.3-5-6.6-7.7-13.2-15.5-33.7-34.8-51-47.9-26.1-19.8-48-32.6-76.6-44.9C462.1 17.3 430.7 8.2 406 4.5c-2.5-.4-5.4-.9-6.5-1.1-1-.2-4.9-.6-8.5-1-3.6-.3-7.8-.8-9.5-1.1-3.3-.5-53.1-1.3-53.7-.8zM378 42.4c1.9.2 6 .8 9 1.1 23.8 2.5 54.4 10.4 79.4 20.4 7 2.8 28.9 13.4 35.6 17.2 5 2.8 33.6 21.7 35.5 23.5 1.2 1.1 4.1 3.5 6.5 5.4 12.3 9.5 35 32.3 46.1 46 33.6 41.9 55.7 90.9 64.4 142.5 1.9 11.1 1.9 11.1 3.1 24.5 1.5 16.2.9 53.3-1 63.5-.2 1.1-.7 4.6-1.1 7.9-.9 7.8-1.2 9.2-4.1 22.6-8.5 38.3-24 74-46.2 106.5-13.1 19.2-19.5 26.8-38.7 46-32.8 32.8-70.9 56.6-115.7 72.4-8.5 2.9-25.4 7.8-30.6 8.7-1.4.3-2.8.7-3.2.9-.8.5-21.3 4.1-28.5 5-11.9 1.4-23.5 2-39.5 2-18.3-.1-31.9-1-44-3-1.4-.2-5.6-.9-9.5-1.5-46.2-7.6-98.2-31.1-137-61.9-10.6-8.4-13.9-11.4-28-25.6C92 527.8 65.8 482 51.2 428c-2.2-7.9-5.6-25.2-6.7-33.3-.4-2.7-.8-5.7-1-6.7-2.6-13.4-2.6-55.6 0-76 3-24.3 10-51.7 18.7-74 11.2-28.9 27.2-56.2 47.7-82 9.4-11.8 33.9-36.5 44.6-44.9 4.4-3.5 8.9-7 10-7.9 3.7-3.1 23-15.9 30.5-20.2 29.8-17.3 65.3-30.5 98-36.4 16.5-3 17.4-3.1 31.5-4.2 5-.4 9.2-.8 9.3-1 .6-.4 40.4.4 44.2 1z"/><path d="M182.5 268c-23.4 3.5-23.1 37.8.3 40.5 2 .2 8 .7 13.2 1 37.3 2.3 75.3 21.7 99 50.5 2.5 3 4.8 5.7 5.1 6 .3.3 2.4 3.2 4.6 6.5 15 22.5 23.3 48.1 24.7 76 .4 10.1 1.9 14.6 6.2 18.8 4.2 4.3 8 5.9 13.8 5.9 13.7.1 21.6-9.3 21.1-25.1-1.4-40.2-14.8-77.6-39.2-109.3-5.8-7.6-21.2-23.2-29.3-29.9-28.5-23.2-65.3-37.8-102-40.5-4.1-.3-8.8-.6-10.5-.8-1.6-.1-4.8.1-7 .4zm328.3-.5c-.2.1-4.6.5-9.8.9-17.6 1.1-34.1 4.8-51.3 11.3-27.8 10.5-49.3 25-70.5 47.5l-3.4 3.6 4.9 8.3c4.3 7.4 7.8 14.3 14.1 28.2l1.7 3.8 4.2-5.9c20.6-28.1 58.4-50.3 93.3-54.7 3-.4 6.6-.8 7.8-1 1.3-.2 5.6-.5 9.5-.6 14.9-.3 23.7-8.1 23.7-20.9 0-10.9-7.8-19.1-19.2-20.2-2.6-.3-4.9-.4-5-.3z"/></svg>